<svg xmlns="http://www.w3.org/2000/svg" xmlns:xlink="http://www.w3.org/1999/xlink" width="173" height="149" viewBox="0 0 173 149">
  <defs>
    <style>
      .cls-1, .cls-10 {
        fill: #fff;
      }

      .cls-1 {
        stroke: #707070;
      }

      .cls-2 {
        clip-path: url(#clip-path);
      }

      .cls-3 {
        fill: #3d6d93;
      }

      .cls-4 {
        fill: #335e80;
      }

      .cls-5 {
        fill: #f9f7f8;
      }

      .cls-6 {
        fill: #ffe179;
      }

      .cls-7 {
        fill: #fbd268;
      }

      .cls-8 {
        fill: #f58a97;
      }

      .cls-9 {
        fill: #f07281;
      }

      .cls-11 {
        fill: #8fd8fa;
      }

      .cls-12 {
        fill: #6bcdfe;
      }

      .cls-13 {
        fill: #aee69c;
      }

      .cls-14 {
        fill: #89daa4;
      }

      .cls-15 {
        fill: rgba(0,0,0,0.27);
      }
    </style>
    <clipPath id="clip-path">
      <rect id="Rectangle_2952" data-name="Rectangle 2952" class="cls-1" width="173" height="149" transform="translate(1449 20)"/>
    </clipPath>
  </defs>
  <g id="Mask_Group_5" data-name="Mask Group 5" class="cls-2" transform="translate(-1449 -20)">
    <g id="social-media-2" transform="translate(1460.215 19.215)">
      <g id="Group_5222" data-name="Group 5222">
        <g id="Group_5210" data-name="Group 5210">
          <g id="Group_5209" data-name="Group 5209">
            <g id="Group_5208" data-name="Group 5208">
              <g id="Group_5207" data-name="Group 5207">
                <g id="Group_5206" data-name="Group 5206">
                  <path id="Path_6392" data-name="Path 6392" class="cls-3" d="M109.246,147.6H42.894a11.641,11.641,0,0,1-11.641-11.641V14.608A11.641,11.641,0,0,1,42.894,2.967h66.352a11.641,11.641,0,0,1,11.641,11.641V135.962A11.641,11.641,0,0,1,109.246,147.6Z"/>
                  <path id="Path_6393" data-name="Path 6393" class="cls-4" d="M109.246,2.967h-8.73a11.641,11.641,0,0,1,11.641,11.641V135.962A11.641,11.641,0,0,1,100.515,147.6h8.73a11.641,11.641,0,0,0,11.641-11.641V14.608A11.641,11.641,0,0,0,109.246,2.967Z"/>
                  <path id="Path_6394" data-name="Path 6394" class="cls-5" d="M97.446,14.026a3.934,3.934,0,0,1-3.934,3.934H58.628a3.934,3.934,0,0,1-3.934-3.934A2.328,2.328,0,0,0,52.366,11.7H44.349a4.365,4.365,0,0,0-4.365,4.365V134.507a4.365,4.365,0,0,0,4.365,4.365h63.441a4.365,4.365,0,0,0,4.365-4.365V16.063a4.365,4.365,0,0,0-4.365-4.365H99.774a2.328,2.328,0,0,0-2.328,2.328Z"/>
                </g>
              </g>
            </g>
          </g>
        </g>
        <g id="Group_5213" data-name="Group 5213">
          <g id="Group_5211" data-name="Group 5211">
            <circle id="Ellipse_292" data-name="Ellipse 292" class="cls-6" cx="25.164" cy="25.164" r="25.164" transform="translate(3.752 18.858)"/>
            <path id="Path_6395" data-name="Path 6395" class="cls-7" d="M28.916,18.858a25.3,25.3,0,0,0-4.365.385,25.159,25.159,0,0,1,0,49.557,25.162,25.162,0,1,0,4.365-49.942Z"/>
          </g>
          <g id="Group_5212" data-name="Group 5212">
            <path id="Path_6396" data-name="Path 6396" class="cls-8" d="M37.646,57.118H20.185a4.365,4.365,0,0,1-4.365-4.365V35.291a4.365,4.365,0,0,1,4.365-4.365H37.646a4.365,4.365,0,0,1,4.365,4.365V52.752A4.365,4.365,0,0,1,37.646,57.118Z"/>
            <path id="Path_6397" data-name="Path 6397" class="cls-9" d="M37.647,30.926h-8.73a4.365,4.365,0,0,1,4.365,4.365V52.752a4.365,4.365,0,0,1-4.365,4.365h8.73a4.365,4.365,0,0,0,4.365-4.365V35.291a4.365,4.365,0,0,0-4.365-4.365Z"/>
            <circle id="Ellipse_293" data-name="Ellipse 293" class="cls-10" cx="4.365" cy="4.365" r="4.365" transform="translate(24.551 39.657)"/>
          </g>
        </g>
        <g id="Group_5215" data-name="Group 5215">
          <g id="Group_5214" data-name="Group 5214">
            <circle id="Ellipse_294" data-name="Ellipse 294" class="cls-11" cx="25.164" cy="25.164" r="25.164" transform="translate(2.182 78.244)"/>
            <path id="Path_6398" data-name="Path 6398" class="cls-12" d="M27.346,78.244a25.272,25.272,0,0,0-4.656.437,25.16,25.16,0,0,1,0,49.453,25.162,25.162,0,1,0,4.656-49.89Z"/>
          </g>
          <g id="Shape_2_">
            <path id="Path_6399" data-name="Path 6399" class="cls-10" d="M35.36,93.758A5.56,5.56,0,0,0,25.6,97.482v1.241A13.231,13.231,0,0,1,15.252,94.15a.743.743,0,0,0-1.28.265c-.912,3.1-2.16,10.9,6.667,14.821a14.448,14.448,0,0,1-5.81,2.309c-.538.087-.272,1.08-.136,1.435.937,2.445,11.5,3.458,17.973-1.863a16.971,16.971,0,0,0,5.594-10.411,11.444,11.444,0,0,0,3.077-6.049,1.327,1.327,0,0,0-1.9-1.41,6.37,6.37,0,0,1-1.395.487,6.5,6.5,0,0,1-2.68.026Z"/>
          </g>
        </g>
        <g id="Group_5218" data-name="Group 5218">
          <g id="Group_5216" data-name="Group 5216">
            <circle id="Ellipse_295" data-name="Ellipse 295" class="cls-8" cx="25.164" cy="25.164" r="25.164" transform="translate(98.06 78.244)"/>
            <path id="Path_6400" data-name="Path 6400" class="cls-9" d="M123.224,78.244a25.3,25.3,0,0,0-4.365.385,25.159,25.159,0,0,1,0,49.557,25.162,25.162,0,1,0,4.365-49.942Z"/>
          </g>
          <g id="Group_5217" data-name="Group 5217">
            <path id="Path_6401" data-name="Path 6401" class="cls-10" d="M117.045,94.849a.845.845,0,0,1,1.268-.732l15.3,8.84a.846.846,0,0,1,0,1.464l-15.3,8.84a.845.845,0,0,1-1.268-.732Z"/>
          </g>
        </g>
        <g id="Group_5220" data-name="Group 5220">
          <g id="Group_5219" data-name="Group 5219">
            <circle id="Ellipse_296" data-name="Ellipse 296" class="cls-11" cx="25.164" cy="25.164" r="25.164" transform="translate(98.06 18.858)"/>
            <path id="Path_6402" data-name="Path 6402" class="cls-12" d="M123.224,18.858a25.3,25.3,0,0,0-4.365.385,25.159,25.159,0,0,1,0,49.557,25.162,25.162,0,1,0,4.365-49.942Z"/>
          </g>
        </g>
        <path id="Path_6403" data-name="Path 6403" class="cls-13" d="M75.6,57.7A17.589,17.589,0,0,0,59.42,80.955a2.01,2.01,0,0,1-.011,1.313L57.067,88.93a1.164,1.164,0,0,0,1.484,1.484l4.686-1.647a2.056,2.056,0,0,1,1.956.339A17.588,17.588,0,1,0,75.6,57.7Z"/>
        <g id="Group_5221" data-name="Group 5221">
          <path id="Path_6404" data-name="Path 6404" class="cls-14" d="M75.6,57.7a17.375,17.375,0,0,0-3.884.547,17.584,17.584,0,0,1-.022,34.07A17.589,17.589,0,1,0,75.6,57.7Z"/>
        </g>
      </g>
      <g id="Group_5223" data-name="Group 5223">
        <path id="Path_6405" data-name="Path 6405" class="cls-15" d="M115.593,45.517h3.515V59.391a2.183,2.183,0,0,0,4.365,0V45.517h3.515a2.183,2.183,0,0,0,0-4.365h-3.515V34.81a2.212,2.212,0,0,1,2.21-2.21h5.172a2.183,2.183,0,0,0,0-4.365h-5.172a6.583,6.583,0,0,0-6.575,6.575v6.341h-3.515a2.183,2.183,0,1,0,0,4.365ZM76.07,12.647a2.183,2.183,0,1,0-2.183-2.183A2.183,2.183,0,0,0,76.07,12.647ZM28.916,50.57a6.548,6.548,0,1,0-6.548-6.548A6.555,6.555,0,0,0,28.916,50.57Zm0-8.73a2.183,2.183,0,1,1-2.183,2.183A2.185,2.185,0,0,1,28.916,41.84ZM37.646,59.3a6.555,6.555,0,0,0,6.548-6.548V35.292a6.555,6.555,0,0,0-6.548-6.548H20.185a6.555,6.555,0,0,0-6.548,6.548V52.753A6.555,6.555,0,0,0,20.185,59.3ZM18,52.753V35.292a2.185,2.185,0,0,1,2.183-2.183H37.646a2.185,2.185,0,0,1,2.183,2.183V52.753a2.185,2.185,0,0,1-2.183,2.183H20.185A2.185,2.185,0,0,1,18,52.753ZM42.144,91.632a3.515,3.515,0,0,0-3.661-.35,4.238,4.238,0,0,1-.918.321,4.186,4.186,0,0,1-1.171.094A7.744,7.744,0,0,0,23.486,96.4a11,11,0,0,1-6.582-3.68A2.925,2.925,0,0,0,11.88,93.8c-.734,2.494-2.284,10.135,4.166,15.23-1.231.375-2.635.347-3.353,1.594a3.754,3.754,0,0,0-.037,3.137c.516,1.346,1.861,2.315,4,2.88a17.711,17.711,0,0,0,4.41.508A20.657,20.657,0,0,0,34.053,112.8,18.754,18.754,0,0,0,40.3,101.716a13.624,13.624,0,0,0,3.192-6.692,3.489,3.489,0,0,0-1.345-3.392Zm-5.45,7.554a2.183,2.183,0,0,0-.586,1.163,14.717,14.717,0,0,1-4.827,9.081c-3.848,3.164-9.263,3.608-12.377,3.207a16.627,16.627,0,0,0,2.963-1.6,2.182,2.182,0,0,0-.339-3.8c-5.435-2.416-6.291-6.528-5.953-9.753A15.312,15.312,0,0,0,25.661,100.9a2.183,2.183,0,0,0,2.126-2.182V97.481c0-.01,0-.019,0-.029a3.378,3.378,0,0,1,5.926-2.262,2.183,2.183,0,0,0,1.221.708,8.614,8.614,0,0,0,3.862-.1,9.287,9.287,0,0,1-2.1,3.391Zm86.531-23.125-.155,0v-4.7l.155,0a27.345,27.345,0,1,0-.155-54.69v-2.07A13.839,13.839,0,0,0,109.246.785H42.894A13.839,13.839,0,0,0,29.071,14.608v2.07a27.229,27.229,0,0,0-15,4.377,2.183,2.183,0,0,0,2.373,3.664A22.976,22.976,0,1,1,9.84,31.2,2.183,2.183,0,0,0,6.22,28.763a27.35,27.35,0,0,0,22.7,42.6l.155,0v4.751c-.571-.036-1.145-.056-1.725-.056a27.346,27.346,0,0,0,0,54.692c.579,0,1.154-.02,1.725-.056v5.264a13.839,13.839,0,0,0,13.823,13.823h66.352a13.839,13.839,0,0,0,13.823-13.823v-5.209l.155,0a27.346,27.346,0,0,0,0-54.693Zm0-55.02a22.981,22.981,0,1,1-22.981,22.981A23.007,23.007,0,0,1,123.224,21.041ZM118.7,70.992v5.44a27.217,27.217,0,0,0-4.365,1.1V69.885a27.068,27.068,0,0,0,4.365,1.107ZM37.8,16.063v2.1a27.106,27.106,0,0,0-4.365-1.107V14.608A9.469,9.469,0,0,1,42.894,5.15h66.352a9.469,9.469,0,0,1,9.458,9.458v2.443a27.106,27.106,0,0,0-4.365,1.107v-2.1a6.555,6.555,0,0,0-6.548-6.548H99.773a4.516,4.516,0,0,0-4.511,4.511,1.754,1.754,0,0,1-1.752,1.752H58.629a1.754,1.754,0,0,1-1.752-1.752,4.508,4.508,0,0,0-4.511-4.511H44.349A6.555,6.555,0,0,0,37.8,16.063ZM33.436,70.992A27.106,27.106,0,0,0,37.8,69.885v8.256a27.094,27.094,0,0,0-4.365-1.395Zm-6.09,55.4a22.981,22.981,0,1,1,22.981-22.981A22.715,22.715,0,0,1,27.346,126.389Zm91.358,9.573a9.469,9.469,0,0,1-9.458,9.458H42.894a9.469,9.469,0,0,1-9.458-9.458V130.07a27.1,27.1,0,0,0,4.365-1.395v5.832a6.555,6.555,0,0,0,6.548,6.548h63.441a6.555,6.555,0,0,0,6.548-6.548v-5.235a27.106,27.106,0,0,0,4.365,1.107Zm4.52-9.573A23,23,0,0,1,100.983,97.6a2.183,2.183,0,0,0-4.224-1.1,27.37,27.37,0,0,0,13.214,30.825v7.185a2.185,2.185,0,0,1-2.183,2.183H44.35a2.185,2.185,0,0,1-2.183-2.183v-8.127a27.327,27.327,0,0,0,0-45.943v-12.5a27.333,27.333,0,0,0,0-47.828V16.063a2.185,2.185,0,0,1,2.183-2.183h8.017a.145.145,0,0,1,.1.042.138.138,0,0,1,.042.1,6.124,6.124,0,0,0,6.117,6.117H93.511a6.124,6.124,0,0,0,6.117-6.117.146.146,0,0,1,.146-.146h8.017a2.185,2.185,0,0,1,2.183,2.183v4.045a27.334,27.334,0,0,0,.015,47.837,2.228,2.228,0,0,0-.015.251V79.466a27.4,27.4,0,0,0-8.418,7.258,2.183,2.183,0,1,0,3.457,2.665,22.7,22.7,0,0,1,18.212-8.962,22.981,22.981,0,1,1,0,45.962ZM84.068,74.563a2.184,2.184,0,0,0-3,.733,5.241,5.241,0,0,1-1.629,1.66,1.981,1.981,0,0,1-2.093.03L74.081,75a2.023,2.023,0,0,1-.934-1.924,5.124,5.124,0,0,1,.717-2.158,2.183,2.183,0,0,0-3.731-2.266A9.525,9.525,0,0,0,68.8,72.672l0,.044a6.371,6.371,0,0,0,3.018,6.02l3.267,1.983a6.369,6.369,0,0,0,6.732-.1A9.628,9.628,0,0,0,84.8,77.562,2.183,2.183,0,0,0,84.068,74.563Zm50.641,26.5-15.3-8.84a3.052,3.052,0,0,0-4.542,2.622V112.53a3.058,3.058,0,0,0,4.542,2.622l15.3-8.84A3.062,3.062,0,0,0,134.709,101.067Zm-15.481,9.145V97.166l11.293,6.523ZM75.54,55.521A19.772,19.772,0,0,0,57.332,81.594l-2.324,6.612a3.346,3.346,0,0,0,4.267,4.267l4.609-1.62A19.771,19.771,0,1,0,75.54,55.521ZM76.5,90.685a15.459,15.459,0,0,1-9.954-3.294,4.251,4.251,0,0,0-2.636-.923,4.2,4.2,0,0,0-1.4.239l-2.683.943,1.638-4.658a4.205,4.205,0,0,0,.018-2.742A15.406,15.406,0,1,1,76.5,90.685Z"/>
      </g>
    </g>
  </g>
</svg>
