<svg xmlns="http://www.w3.org/2000/svg" xmlns:xlink="http://www.w3.org/1999/xlink" width="173" height="149" viewBox="0 0 173 149">
  <defs>
    <style>
      .cls-1 {
        fill: #fff;
        stroke: #707070;
      }

      .cls-2 {
        clip-path: url(#clip-path);
      }

      .cls-3 {
        fill: #e5e1e5;
      }

      .cls-4 {
        fill: #d7d0d6;
      }

      .cls-5 {
        fill: #f9f7f8;
      }

      .cls-6 {
        fill: #efedef;
      }

      .cls-7 {
        fill: #f58a97;
      }

      .cls-8 {
        fill: #f07281;
      }

      .cls-9 {
        fill: #fee97d;
      }

      .cls-10 {
        fill: #f4da6e;
      }

      .cls-11 {
        fill: #7a6d79;
      }

      .cls-12 {
        fill: #ecbba3;
      }

      .cls-13 {
        fill: #e8ad8c;
      }

      .cls-14 {
        fill: #e19974;
      }

      .cls-15 {
        fill: #dc8758;
      }

      .cls-16 {
        fill: #685e68;
      }
    </style>
    <clipPath id="clip-path">
      <rect id="Rectangle_2951" data-name="Rectangle 2951" class="cls-1" width="173" height="149" transform="translate(826 378)"/>
    </clipPath>
  </defs>
  <g id="Mask_Group_7" data-name="Mask Group 7" class="cls-2" transform="translate(-826 -378)">
    <g id="growth" transform="translate(838 378)">
      <g id="Group_5224" data-name="Group 5224">
        <path id="Path_6420" data-name="Path 6420" class="cls-3" d="M52.55,62.037,15.3,43.141A1.2,1.2,0,0,1,15,41.223L31.516,24.7a34.342,34.342,0,0,1,48.567,0l4.9,4.9Z"/>
        <path id="Path_6421" data-name="Path 6421" class="cls-3" d="M86.963,96.45l18.9,37.249a1.2,1.2,0,0,0,1.918.305l16.52-16.52a34.342,34.342,0,0,0,0-48.567l-4.9-4.9Z"/>
        <path id="Path_6422" data-name="Path 6422" class="cls-4" d="M124.3,68.917l-4.9-4.9-4.5,4.5.4.4a34.342,34.342,0,0,1,0,48.567l-11.723,11.723,2.279,4.492a1.2,1.2,0,0,0,1.918.305l16.52-16.52a34.342,34.342,0,0,0,0-48.566Z"/>
      </g>
      <path id="Path_6423" data-name="Path 6423" class="cls-4" d="M29.688,50.439l22.863,11.6L84.984,29.6l-4.9-4.9a34.184,34.184,0,0,0-15.167-8.831A121.631,121.631,0,0,0,43.8,32.55,97.68,97.68,0,0,0,29.688,50.439Z"/>
      <path id="Path_6424" data-name="Path 6424" class="cls-5" d="M51.578,128.418a98.409,98.409,0,0,0,61.085-28.549c23.907-23.96,41.1-65.53,35.152-96.557a2.907,2.907,0,0,0-2.364-2.307C114.005-4.468,72.206,13.087,48.3,37.047A96.406,96.406,0,0,0,20.244,97.835Z"/>
      <path id="Path_6425" data-name="Path 6425" class="cls-6" d="M147.816,3.313a2.907,2.907,0,0,0-2.364-2.307q-3.125-.544-6.378-.786c5.18,30.867-11.855,71.553-35.4,95.154a98.331,98.331,0,0,1-57.143,28.114l5.052,4.931a98.409,98.409,0,0,0,61.085-28.549c23.907-23.96,41.1-65.53,35.152-96.557Z"/>
      <path id="Path_6426" data-name="Path 6426" class="cls-7" d="M145.452,1.005c-16.274-2.832-35.32.5-53.225,7.7A42.156,42.156,0,0,0,133.86,57.262a42.428,42.428,0,0,0,6.594-.515c7.235-18,10.48-37.168,7.361-53.434a2.908,2.908,0,0,0-2.364-2.307Z"/>
      <path id="Path_6427" data-name="Path 6427" class="cls-8" d="M147.816,3.313a2.907,2.907,0,0,0-2.364-2.307q-3.125-.544-6.378-.786c2.924,17.422-1.231,37.971-9.638,56.812a42.474,42.474,0,0,0,11.019-.284c7.235-18,10.48-37.168,7.361-53.434Z"/>
      <path id="Path_6428" data-name="Path 6428" class="cls-7" d="M33.955,137.279l-22.436-21.9,8.725-17.546,31.334,30.583Z"/>
      <path id="Path_6429" data-name="Path 6429" class="cls-8" d="M27.856,131.326l6.1,5.953,17.623-8.861-5.052-4.931Z"/>
      <path id="Path_6430" data-name="Path 6430" class="cls-9" d="M.238,143.94l.137,1.109a4.2,4.2,0,0,0,3.733,3.643l1.123.12a32.588,32.588,0,0,0,26.538-9.343l2.186-2.191-22.436-21.9-2.186,2.191A31.81,31.81,0,0,0,.238,143.94Z"/>
      <path id="Path_6431" data-name="Path 6431" class="cls-10" d="M27.862,131.332l-1.9,1.9A32.581,32.581,0,0,1,.108,142.64c.035.433.077.867.13,1.3l.137,1.109a4.2,4.2,0,0,0,3.733,3.643l1.123.12a32.588,32.588,0,0,0,26.538-9.343l2.186-2.191Z"/>
      <g id="Group_5226" data-name="Group 5226">
        <g id="Group_5225" data-name="Group 5225">
          <path id="Path_6432" data-name="Path 6432" class="cls-11" d="M91.314,77.163a2.243,2.243,0,0,1-1.59-.659L72.5,59.276a2.248,2.248,0,0,1,0-3.18l6.945-6.945a5.506,5.506,0,0,1,7.786,0L99.849,61.773a5.505,5.505,0,0,1,0,7.786L92.9,76.5a2.241,2.241,0,0,1-1.59.659ZM77.266,57.686,91.314,71.735l5.355-5.355a1.008,1.008,0,0,0,0-1.426L84.047,52.331a1.009,1.009,0,0,0-1.427,0Z"/>
        </g>
        <path id="Path_6433" data-name="Path 6433" class="cls-12" d="M71.147,106.042,42.958,77.853a3.257,3.257,0,0,1,0-4.606L54.45,61.755l32.8,32.8L75.753,106.042a3.257,3.257,0,0,1-4.606,0Z"/>
        <path id="Path_6434" data-name="Path 6434" class="cls-13" d="M54.45,61.755l-4.5,4.5L74.012,90.311a6,6,0,0,1,0,8.48l-5.058,5.058,2.194,2.194a3.257,3.257,0,0,0,4.606,0L87.245,94.551Z"/>
        <path id="Path_6435" data-name="Path 6435" class="cls-14" d="M101.352,81.02,67.981,47.649a3.257,3.257,0,0,0-4.606,0l-9.212,9.212a3.257,3.257,0,0,0,0,4.606L87.533,94.838a3.257,3.257,0,0,0,4.606,0l9.212-9.212A3.257,3.257,0,0,0,101.352,81.02Z"/>
        <path id="Path_6436" data-name="Path 6436" class="cls-15" d="M101.352,81.02,67.981,47.649a3.257,3.257,0,0,0-4.606,0L61.18,49.843,88.3,76.963a8.994,8.994,0,0,1,0,12.719l-2.962,2.962,2.194,2.194a3.257,3.257,0,0,0,4.606,0l9.212-9.212A3.257,3.257,0,0,0,101.352,81.02Z"/>
        <path id="Path_6437" data-name="Path 6437" class="cls-11" d="M72.575,86.294l-9.87-9.87a1.411,1.411,0,0,1,0-2l4.419-4.418a1.411,1.411,0,0,1,2,0l9.87,9.87a1.411,1.411,0,0,1,0,2l-4.419,4.419A1.411,1.411,0,0,1,72.575,86.294Z"/>
        <path id="Path_6438" data-name="Path 6438" class="cls-16" d="M78.989,79.88l-9.87-9.87a1.411,1.411,0,0,0-2,0l-3.5,3.5L70,79.88a1.411,1.411,0,0,1,0,2l-.919.919,3.5,3.5a1.411,1.411,0,0,0,2,0l4.419-4.419a1.41,1.41,0,0,0,0-2Z"/>
      </g>
    </g>
  </g>
</svg>
