<svg id="Component_21_1" data-name="Component 21 – 1" xmlns="http://www.w3.org/2000/svg" width="885.975" height="830.79" viewBox="0 0 885.975 830.79">
  <g id="Background_Complete" data-name="Background Complete" transform="translate(28.792 13.661)">
    <g id="Group_3828" data-name="Group 3828" transform="translate(762.383 150.462)">
      <path id="Path_5158" data-name="Path 5158" d="M490.517,134.082c-5.244-1.155-10.85.414-15.284,3.443a35.342,35.342,0,0,0-10.438,12.088c-5.1,9.053-6.451,20.936-6.165,31.324,11.49-1.056,20.867-10.612,25.32-15.758,7.036-8.134,14.814-27.107,6.567-31.1" transform="translate(-422.594 -133.701)" fill="#e0e0e0"/>
      <path id="Path_5159" data-name="Path 5159" d="M457.843,177.837c4.548-3.913,6.329-10.523,5.037-16.383a22.658,22.658,0,0,0-10.49-14.028c-2.364-1.449-5.26-2.546-7.877-1.629a7.3,7.3,0,0,0-4.426,5.929,14.8,14.8,0,0,0,1.279,7.583c3.335,8.245,8.076,15.609,16.477,18.528" transform="translate(-439.983 -122.713)" fill="#e0e0e0"/>
      <g id="Group_3825" data-name="Group 3825" transform="translate(8.882 36.148)">
        <path id="Path_5160" data-name="Path 5160" d="M444.585,204.691a9.29,9.29,0,0,1,.673-2.076q.868-2.26,2.122-5.527a84.051,84.051,0,0,0,5.175-18.675,38.391,38.391,0,0,0-2.07-18.994c-1.853-4.6-4.033-6.906-3.857-7.03A7.389,7.389,0,0,1,448.111,154a24.3,24.3,0,0,1,3.031,5.146c2.114,4.6,3.424,11.723,2.41,19.4a73.968,73.968,0,0,1-5.511,18.812c-.975,2.31-1.818,4.151-2.422,5.416A8.976,8.976,0,0,1,444.585,204.691Z" transform="translate(-444.575 -152.388)" fill="#ebebeb"/>
      </g>
      <g id="Group_3826" data-name="Group 3826" transform="translate(7.473 14.305)">
        <path id="Path_5161" data-name="Path 5161" d="M497.1,141.1a3.393,3.393,0,0,1-.489.8c-.424.59-.938,1.3-1.555,2.165l-5.832,7.875c-4.935,6.641-11.721,15.835-19.071,26.1s-13.874,19.648-18.574,26.457L446,212.542c-.617.863-1.128,1.578-1.549,2.17-.364.489-.569.737-.6.718a3.367,3.367,0,0,1,.427-.83c.379-.621.84-1.37,1.393-2.275,1.224-1.963,3.039-4.78,5.316-8.237,4.552-6.916,10.989-16.371,18.346-26.645s14.239-19.406,19.323-25.941c2.54-3.267,4.621-5.892,6.088-7.684.679-.814,1.242-1.491,1.706-2.05C496.847,141.308,497.07,141.076,497.1,141.1Z" transform="translate(-443.846 -141.096)" fill="#ebebeb"/>
      </g>
      <path id="Path_5162" data-name="Path 5162" d="M453.724,173.32a39.935,39.935,0,0,1,35.464-8.568c3.124.785,6.623,2.511,7.08,5.7s-2.437,5.84-5.26,7.4a34.116,34.116,0,0,1-37.669-3.753" transform="translate(-427.503 -105.749)" fill="#e0e0e0"/>
      <g id="Group_3827" data-name="Group 3827" transform="translate(8.785 64.233)">
        <path id="Path_5163" data-name="Path 5163" d="M490.038,167.886c-.031.2-2.956-.369-7.7-.257a46.514,46.514,0,0,0-8.252.967,47.229,47.229,0,0,0-18.427,8.277,46.551,46.551,0,0,0-6.206,5.527c-3.234,3.474-4.749,6.041-4.921,5.927a8.319,8.319,0,0,1,.992-1.836,17.184,17.184,0,0,1,1.372-2.031,28.674,28.674,0,0,1,2.029-2.538,42.33,42.33,0,0,1,6.177-5.792,45.048,45.048,0,0,1,18.8-8.444,42.281,42.281,0,0,1,8.428-.772,28.449,28.449,0,0,1,3.246.17,16.915,16.915,0,0,1,2.43.323A8.157,8.157,0,0,1,490.038,167.886Z" transform="translate(-444.525 -166.907)" fill="#ebebeb"/>
      </g>
    </g>
    <g id="Group_3832" data-name="Group 3832" transform="translate(0 32.114)">
      <path id="Path_5164" data-name="Path 5164" d="M51.074,73.786c-3.285,4.25-4.263,9.987-3.42,15.29a35.316,35.316,0,0,0,6.465,14.6c6,8.482,16.17,14.785,25.683,18.965,3.958-10.839-.673-23.4-3.422-29.626C72.033,83.18,58.206,68.039,51.074,73.786" transform="translate(-44.47 -72.521)" fill="#e0e0e0"/>
      <path id="Path_5165" data-name="Path 5165" d="M80.563,114.484c-1.594-5.782-6.809-10.22-12.657-11.556a22.668,22.668,0,0,0-17.166,3.486c-2.321,1.52-4.552,3.668-4.84,6.426a7.3,7.3,0,0,0,3.468,6.536,14.8,14.8,0,0,0,7.4,2.085c8.879.509,17.567-.629,23.8-6.977" transform="translate(-45.869 -44.558)" fill="#e0e0e0"/>
      <g id="Group_3829" data-name="Group 3829" transform="translate(14.579 66.876)">
        <path id="Path_5166" data-name="Path 5166" d="M99.813,132.5a9.143,9.143,0,0,1-1.586-1.5q-1.674-1.753-4.089-4.281a84.025,84.025,0,0,0-14.673-12.661,38.406,38.406,0,0,0-18.054-6.248c-4.956-.292-7.968.694-8,.482a7.482,7.482,0,0,1,2.087-.654,24.348,24.348,0,0,1,5.948-.54c5.059.054,12.059,1.913,18.567,6.113a73.848,73.848,0,0,1,14.649,13.024c1.671,1.869,2.977,3.418,3.861,4.5A9,9,0,0,1,99.813,132.5Z" transform="translate(-53.406 -107.093)" fill="#ebebeb"/>
      </g>
      <g id="Group_3830" data-name="Group 3830" transform="translate(16.11 13.726)">
        <path id="Path_5167" data-name="Path 5167" d="M54.2,79.617a3.286,3.286,0,0,1,.511.783c.354.636.78,1.4,1.292,2.331l4.627,8.639c3.894,7.3,9.307,17.365,15.439,28.4S87.9,140.71,92.049,147.87c2.006,3.478,3.66,6.345,4.9,8.486.517.927.946,1.695,1.3,2.329a3.352,3.352,0,0,1,.395.847,3.268,3.268,0,0,1-.569-.743c-.4-.607-.88-1.342-1.46-2.23-1.254-1.946-3.024-4.79-5.175-8.326-4.306-7.072-10.1-16.934-16.245-27.976S63.735,99.087,60,91.7c-1.869-3.693-3.35-6.7-4.343-8.79-.447-.961-.818-1.758-1.124-2.418A3.253,3.253,0,0,1,54.2,79.617Z" transform="translate(-54.197 -79.617)" fill="#ebebeb"/>
      </g>
      <path id="Path_5168" data-name="Path 5168" d="M72.172,126.786a39.932,39.932,0,0,1,7.415-35.723c2.045-2.488,5.1-4.915,8.179-3.964s4.236,4.7,4.445,7.92a34.116,34.116,0,0,1-19.5,32.45" transform="translate(-22.654 -59.097)" fill="#e0e0e0"/>
      <g id="Group_3831" data-name="Group 3831" transform="translate(50.911 41.296)">
        <path id="Path_5169" data-name="Path 5169" d="M80.665,93.871c.172.114-1.6,2.515-3.525,6.852a46.656,46.656,0,0,0-2.652,7.873,47.291,47.291,0,0,0-.395,20.2,46.486,46.486,0,0,0,2.345,7.972c1.758,4.41,3.43,6.877,3.254,6.983a8.239,8.239,0,0,1-1.236-1.681,17.234,17.234,0,0,1-1.248-2.109,28.479,28.479,0,0,1-1.428-2.919,42.31,42.31,0,0,1-2.6-8.059,45.08,45.08,0,0,1,.4-20.607,42.307,42.307,0,0,1,2.907-7.949,28.684,28.684,0,0,1,1.54-2.863A16.964,16.964,0,0,1,79.365,95.5,8.262,8.262,0,0,1,80.665,93.871Z" transform="translate(-72.188 -93.869)" fill="#ebebeb"/>
      </g>
    </g>
    <g id="Group_3836" data-name="Group 3836" transform="translate(219.538 737.631)">
      <path id="Path_5170" data-name="Path 5170" d="M161.97,497.9c5.018,1.915,10.792,1.192,15.626-1.151A35.33,35.33,0,0,0,189.7,486.334c6.38-8.2,9.469-19.758,10.719-30.073-11.521-.652-22.2,7.417-27.366,11.85-8.159,7.007-18.652,24.625-11.084,29.788" transform="translate(-159.36 -419.498)" fill="#e0e0e0"/>
      <path id="Path_5171" data-name="Path 5171" d="M194.075,453.6c-5.076,3.2-7.813,9.475-7.4,15.46a22.664,22.664,0,0,0,8.306,15.421c2.126,1.784,4.826,3.3,7.552,2.774a7.3,7.3,0,0,0,5.252-5.211,14.816,14.816,0,0,0-.147-7.687c-2.083-8.647-5.685-16.632-13.564-20.756" transform="translate(-133.873 -421.954)" fill="#e0e0e0"/>
      <g id="Group_3833" data-name="Group 3833" transform="translate(59.689)">
        <path id="Path_5172" data-name="Path 5172" d="M204.513,437.24a9.233,9.233,0,0,1-.971,1.954q-1.193,2.107-2.913,5.153a83.9,83.9,0,0,0-7.873,17.708A38.379,38.379,0,0,0,192,481.145c1.153,4.828,2.971,7.426,2.776,7.523a7.484,7.484,0,0,1-1.228-1.809,24.348,24.348,0,0,1-2.238-5.538c-1.414-4.857-1.66-12.1.476-19.542a73.941,73.941,0,0,1,8.227-17.793c1.3-2.139,2.41-3.838,3.194-5A9.176,9.176,0,0,1,204.513,437.24Z" transform="translate(-190.216 -437.238)" fill="#ebebeb"/>
      </g>
      <g id="Group_3834" data-name="Group 3834" transform="translate(11.783 0.023)">
        <path id="Path_5173" data-name="Path 5173" d="M165.453,502.918a3.319,3.319,0,0,1,.6-.716l1.857-1.913,6.931-6.927c5.859-5.84,13.926-13.936,22.71-23s16.623-17.388,22.275-23.43l6.707-7.144,1.851-1.917c.431-.431.671-.646.7-.623a3.4,3.4,0,0,1-.547.758l-1.712,2.045c-1.5,1.762-3.71,4.279-6.473,7.362-5.521,6.167-13.284,14.572-22.076,23.648s-16.946,17.093-22.936,22.8c-2.995,2.857-5.442,5.148-7.155,6.7l-1.991,1.776A3.329,3.329,0,0,1,165.453,502.918Z" transform="translate(-165.451 -437.25)" fill="#ebebeb"/>
      </g>
      <path id="Path_5174" data-name="Path 5174" d="M207.685,452.38a39.936,39.936,0,0,1-36.34,3.242c-2.973-1.238-6.181-3.459-6.161-6.68s3.273-5.416,6.295-6.548a34.115,34.115,0,0,1,36.7,9.266" transform="translate(-153.917 -434.282)" fill="#e0e0e0"/>
      <g id="Group_3835" data-name="Group 3835" transform="translate(25.649 2.777)">
        <path id="Path_5175" data-name="Path 5175" d="M172.619,452.186c.06-.2,2.869.8,7.579,1.391a46.638,46.638,0,0,0,8.3.259,47.259,47.259,0,0,0,19.447-5.469,46.6,46.6,0,0,0,6.952-4.552c3.712-2.96,5.589-5.273,5.741-5.136a8.208,8.208,0,0,1-1.252,1.669,17.3,17.3,0,0,1-1.656,1.807,28.7,28.7,0,0,1-2.381,2.211,42.377,42.377,0,0,1-6.962,4.817,45.092,45.092,0,0,1-19.841,5.579,42.26,42.26,0,0,1-8.452-.482,28.184,28.184,0,0,1-3.186-.646,17.015,17.015,0,0,1-2.354-.677A8.315,8.315,0,0,1,172.619,452.186Z" transform="translate(-172.619 -438.674)" fill="#ebebeb"/>
      </g>
    </g>
    <g id="Group_3839" data-name="Group 3839" transform="translate(587.479 505.997)">
      <ellipse id="Ellipse_262" data-name="Ellipse 262" cx="19.332" cy="19.332" rx="19.332" ry="19.332" transform="matrix(0.562, -0.827, 0.827, 0.562, 0, 63.21)" fill="#ebebeb"/>
      <path id="Path_5176" data-name="Path 5176" d="M420.092,336.8a19.333,19.333,0,1,1-19.36-19.306A19.331,19.331,0,0,1,420.092,336.8Z" transform="translate(-319.795 -317.495)" fill="#ebebeb"/>
      <path id="Path_5177" data-name="Path 5177" d="M420.149,379.984c.017,11.616-8.626,21.047-19.3,21.06s-19.346-9.39-19.362-21.008,8.626-21.045,19.3-21.06S420.134,368.368,420.149,379.984Z" transform="translate(-319.74 -278.734)" fill="#ebebeb"/>
      <g id="Group_3837" data-name="Group 3837" transform="translate(20.884 61.646)">
        <path id="Path_5178" data-name="Path 5178" d="M414.851,386.514c-.826,1.215-13.686-6.088-28.718-16.307s-26.556-19.5-25.728-20.712,13.682,6.086,28.72,16.309S415.677,385.3,414.851,386.514Z" transform="translate(-360.362 -349.363)" fill="#ebebeb"/>
      </g>
      <g id="Group_3838" data-name="Group 3838" transform="translate(29.251 17.857)">
        <path id="Path_5179" data-name="Path 5179" d="M412.352,326.848c.9,1.163-9.028,10.363-22.172,20.546s-24.534,17.5-25.436,16.34,9.026-10.359,22.176-20.547S411.453,325.685,412.352,326.848Z" transform="translate(-364.688 -326.726)" fill="#ebebeb"/>
      </g>
    </g>
    <g id="Group_3849" data-name="Group 3849" transform="translate(476.674 56.309)">
      <g id="Group_3840" data-name="Group 3840" transform="translate(79.824 282.416)">
        <path id="Path_5180" data-name="Path 5180" d="M334.054,231.024c.279,0,.5,5.2.5,11.607s-.226,11.607-.5,11.607-.5-5.2-.5-11.607S333.777,231.024,334.054,231.024Z" transform="translate(-333.551 -231.024)" fill="#e0e0e0"/>
      </g>
      <g id="Group_3841" data-name="Group 3841" transform="translate(79.824 235.99)">
        <path id="Path_5181" data-name="Path 5181" d="M334.054,207.024c.279,0,.5,5.2.5,11.607s-.226,11.607-.5,11.607-.5-5.2-.5-11.607S333.777,207.024,334.054,207.024Z" transform="translate(-333.551 -207.024)" fill="#e0e0e0"/>
      </g>
      <g id="Group_3842" data-name="Group 3842" transform="translate(79.824 189.564)">
        <path id="Path_5182" data-name="Path 5182" d="M334.054,183.024c.279,0,.5,5.2.5,11.607s-.226,11.607-.5,11.607-.5-5.2-.5-11.607S333.777,183.024,334.054,183.024Z" transform="translate(-333.551 -183.024)" fill="#e0e0e0"/>
      </g>
      <g id="Group_3843" data-name="Group 3843" transform="translate(79.824 143.138)">
        <path id="Path_5183" data-name="Path 5183" d="M334.054,159.024c.279,0,.5,5.2.5,11.607s-.226,11.607-.5,11.607-.5-5.2-.5-11.607S333.777,159.024,334.054,159.024Z" transform="translate(-333.551 -159.024)" fill="#e0e0e0"/>
      </g>
      <g id="Group_3844" data-name="Group 3844" transform="translate(79.824 96.711)">
        <path id="Path_5184" data-name="Path 5184" d="M334.054,135.024c.279,0,.5,5.2.5,11.607s-.226,11.607-.5,11.607-.5-5.2-.5-11.607S333.777,135.024,334.054,135.024Z" transform="translate(-333.551 -135.024)" fill="#e0e0e0"/>
      </g>
      <g id="Group_3845" data-name="Group 3845" transform="translate(67.115 62.994)">
        <path id="Path_5185" data-name="Path 5185" d="M326.981,118.1c0-.279,5.2-.5,11.607-.5l1.606.006h.5l0,.5c-.033,5.658-.244,10-.5,10s-.464-4.341-.5-10l.5.5-1.606.006C332.179,118.6,326.981,118.376,326.981,118.1Z" transform="translate(-326.981 -117.594)" fill="#e0e0e0"/>
      </g>
      <g id="Group_3846" data-name="Group 3846" transform="translate(20.689 62.994)">
        <path id="Path_5186" data-name="Path 5186" d="M302.981,118.1c0-.279,5.2-.5,11.607-.5s11.607.226,11.607.5-5.2.5-11.607.5S302.981,118.376,302.981,118.1Z" transform="translate(-302.981 -117.594)" fill="#e0e0e0"/>
      </g>
      <g id="Group_3847" data-name="Group 3847" transform="translate(0 37.257)">
        <path id="Path_5187" data-name="Path 5187" d="M292.789,104.289c.279,0,.5,5.2.5,11.607s-.226,11.607-.5,11.607-.5-5.2-.5-11.607S292.512,104.289,292.789,104.289Z" transform="translate(-292.286 -104.289)" fill="#e0e0e0"/>
      </g>
      <g id="Group_3848" data-name="Group 3848">
        <path id="Path_5188" data-name="Path 5188" d="M292.789,85.029c.279,0,.5,3.143.5,7.022s-.226,7.022-.5,7.022-.5-3.143-.5-7.022S292.512,85.029,292.789,85.029Z" transform="translate(-292.286 -85.029)" fill="#e0e0e0"/>
      </g>
    </g>
    <g id="Group_3857" data-name="Group 3857" transform="translate(58.531 447.167)">
      <g id="Group_3850" data-name="Group 3850" transform="translate(138.656 135.22)">
        <path id="Path_5189" data-name="Path 5189" d="M147.805,357.488c0-.279,2.6-.5,5.8-.5s5.8.224,5.8.5-2.6.5-5.8.5S147.805,357.767,147.805,357.488Z" transform="translate(-147.805 -356.985)" fill="#e0e0e0"/>
      </g>
      <g id="Group_3851" data-name="Group 3851" transform="translate(88.032 135.22)">
        <path id="Path_5190" data-name="Path 5190" d="M121.635,357.488c0-.279,5.666-.5,12.655-.5s12.653.224,12.653.5-5.664.5-12.653.5S121.635,357.767,121.635,357.488Z" transform="translate(-121.635 -356.985)" fill="#e0e0e0"/>
      </g>
      <g id="Group_3852" data-name="Group 3852" transform="translate(37.41 135.22)">
        <path id="Path_5191" data-name="Path 5191" d="M95.466,357.488c0-.279,5.666-.5,12.655-.5s12.655.224,12.655.5-5.666.5-12.655.5S95.466,357.767,95.466,357.488Z" transform="translate(-95.466 -356.985)" fill="#e0e0e0"/>
      </g>
      <g id="Group_3853" data-name="Group 3853" transform="translate(0 124.116)">
        <path id="Path_5192" data-name="Path 5192" d="M76.638,351.245c.279,0,.5,5.2.5,11.6.108.112-.954-.952-.5-.5h.594l.59,0,1.151.008,2.178.029,3.689.108c2.1.091,3.4.217,3.4.356s-1.3.265-3.4.356l-3.689.108-2.178.029-1.151.008-.59,0H76.64c.449.451-.615-.613-.5-.5C76.135,356.441,76.359,351.245,76.638,351.245Z" transform="translate(-76.127 -351.245)" fill="#e0e0e0"/>
      </g>
      <g id="Group_3854" data-name="Group 3854" transform="translate(0.008 79.112)">
        <path id="Path_5193" data-name="Path 5193" d="M76.634,327.98c.279,0,.5,5.039.5,11.251s-.226,11.253-.5,11.253-.5-5.037-.5-11.253S76.355,327.98,76.634,327.98Z" transform="translate(-76.131 -327.98)" fill="#e0e0e0"/>
      </g>
      <g id="Group_3855" data-name="Group 3855" transform="translate(0.008 34.11)">
        <path id="Path_5194" data-name="Path 5194" d="M76.634,304.716c.279,0,.5,5.037.5,11.251s-.226,11.251-.5,11.251-.5-5.035-.5-11.251S76.355,304.716,76.634,304.716Z" transform="translate(-76.131 -304.716)" fill="#e0e0e0"/>
      </g>
      <g id="Group_3856" data-name="Group 3856" transform="translate(0.008)">
        <path id="Path_5195" data-name="Path 5195" d="M76.634,287.083c.279,0,.5,2.6.5,5.8s-.226,5.8-.5,5.8-.5-2.6-.5-5.8S76.355,287.083,76.634,287.083Z" transform="translate(-76.131 -287.083)" fill="#e0e0e0"/>
      </g>
    </g>
    <path id="Path_5196" data-name="Path 5196" d="M191.39,307.361a20.1,20.1,0,0,0-6.475-21.718,19.622,19.622,0,0,0-11.231-4.016,16.217,16.217,0,0,1-14.27-9.715c-4.118-9.324-12.309-16.924-22.161-19.685-14.077-3.944-30.384,2.315-38.2,14.665-2.163,3.416-3.915,7.415-7.444,9.39-4.5,2.519-10.045.816-15.189.491-15.257-.961-29.707,15.321-28.912,30.587Z" transform="translate(-44.371 126.416)" fill="#f5f5f5"/>
    <path id="Path_5197" data-name="Path 5197" d="M395.073,112.229a20.1,20.1,0,0,0-6.474-21.72,19.622,19.622,0,0,0-11.231-4.016,16.212,16.212,0,0,1-14.27-9.713c-4.118-9.326-12.309-16.926-22.161-19.687-14.077-3.942-30.384,2.317-38.2,14.665-2.163,3.416-3.915,7.415-7.444,9.392-4.5,2.517-10.045.814-15.189.491-15.257-.963-29.707,15.319-28.912,30.587Z" transform="translate(145.955 -55.92)" fill="#f5f5f5"/>
  </g>
  <g id="Connectivity" transform="translate(0 16.776)">
    <g id="Group_3862" data-name="Group 3862" transform="translate(0 0)">
      <g id="Group_3858" data-name="Group 3858" transform="translate(520.502 126.542)">
        <circle id="Ellipse_263" data-name="Ellipse 263" cx="129.214" cy="129.214" r="129.214" transform="translate(0 182.736) rotate(-45)" fill="#e0e0e0"/>
      </g>
      <path id="Path_5199" data-name="Path 5199" d="M448.021,460.964c-3.068,77.715-60.3,142.025-138.06,143.538A140.828,140.828,0,0,1,166.423,466.44c-1.513-77.76,60.515-149.5,138.06-143.536C387.2,329.264,450.82,390.059,448.021,460.964Z" transform="translate(95.546 190.116)" fill="#e0e0e0"/>
      <circle id="Ellipse_264" data-name="Ellipse 264" cx="131.756" cy="131.756" r="131.756" transform="translate(0 186.332) rotate(-45)" fill="#e0e0e0"/>
      <g id="Group_3859" data-name="Group 3859" transform="translate(456.067 339.688)">
        <path id="Path_5200" data-name="Path 5200" d="M497.234,233.18c2.047,1.886-47.883,59.35-111.5,128.332-63.643,69-116.874,123.4-118.921,121.511s47.873-59.335,111.516-128.341C441.946,285.7,495.191,231.294,497.234,233.18Z" transform="translate(-266.749 -233.132)" fill="#e0e0e0"/>
      </g>
      <g id="Group_3860" data-name="Group 3860" transform="translate(269.211 160.707)">
        <path id="Path_5201" data-name="Path 5201" d="M561.016,225.939c-.592,2.72-88.575-14.117-196.491-37.6C256.571,164.854,169.564,143.614,170.156,140.9s88.556,14.114,196.51,37.6C474.583,201.979,561.608,223.221,561.016,225.939Z" transform="translate(-170.153 -140.608)" fill="#e0e0e0"/>
      </g>
      <g id="Group_3861" data-name="Group 3861" transform="translate(128.578 194.23)">
        <path id="Path_5202" data-name="Path 5202" d="M308.2,528.026c-1.157.718-14.841-18.855-35.564-51.388s-48.384-78.089-77.5-129.229c-29.115-51.167-54.172-98.213-71.556-132.643S96.346,158.58,97.553,157.953c1.261-.658,13.328,19.923,32.3,53.448,18.961,33.556,45.126,79.865,74.032,131.024,29.219,50.957,55.675,97.093,74.847,130.529C297.876,506.389,309.413,527.277,308.2,528.026Z" transform="translate(-97.454 -157.938)" fill="#e0e0e0"/>
      </g>
    </g>
  </g>
  <g id="Character_3" data-name="Character 3" transform="translate(533.927 101.685)">
    <g id="Group_3891" data-name="Group 3891" transform="translate(0 0)">
      <path id="Path_5203" data-name="Path 5203" d="M428.694,125.331c.673,11.038,1.433,14.39,5.527,23.194,2.426,5.221,5.844,10.057,7.192,15.655,1.281,5.32.59,10.933,1.571,16.315,1.6,8.786,7.428,16.092,11.8,23.879s7.328,17.638,2.981,25.441l-44.753-5.287-3.155-55.562Z" transform="translate(-210.883 -79.085)" fill="#263238"/>
      <path id="Path_5204" data-name="Path 5204" d="M389.915,115.592c-5.8,12.289,2.261,24.581-3.532,36.872-2.871,6.092-5.763,12.237-7.3,18.795-1.381,5.908-1.658,12.133-4.066,17.7-3.838,8.875-12.554,14.876-16.592,23.662-5.979,13.019.373,29.328,11.806,37.963s26.606,10.786,40.9,9.786c8.664-.607,17.448-2.337,24.9-6.79s13.433-11.984,14.375-20.617" transform="translate(-261.082 -88.185)" fill="#263238"/>
      <path id="Path_5205" data-name="Path 5205" d="M439.964,104.281c28.8,12.769,34.524,60.07,34.669,66.438.172,7.6,4.217,9.169,9.266,13.141s9.937,8.782,11.334,14.949c1.1,4.852-.054,10.218,2.269,14.644,2.774,5.287,9.339,7.25,14.437,10.514,9.63,6.167,14.382,17.768,14.914,28.966s-2.546,22.227-5.6,33.036c-1.211,4.287-2.716,8.972-6.6,11.311-3,1.8-6.745,1.78-10.27,1.7L449.69,297.76c-13.949-.311-28.27-.694-41.163-5.879a51.56,51.56,0,0,1-25.281-21.223,41.807,41.807,0,0,1-4.552-31.931c2.273-8.206,7.254-15.617,8.693-24,1.782-10.378-6.921-14.82-10.074-24.886s-5.761-34.214-1.439-43.861" transform="translate(-244.766 -98.754)" fill="#263238"/>
      <path id="Path_5206" data-name="Path 5206" d="M510.062,304.742l-9-28.827-1.311,44.014S511.422,350,520.309,372.983a134.887,134.887,0,0,1-136.491.954l13.85-49.771-6.6-56.29L372.794,294.01l-38.983-37.684s28.537-52.725,32.075-57.536c22.561-30.67,61.536-29.935,61.536-29.935l55.145,3.054s31.007-1.735,51.374,22.8c0,0,19.907,30.382,36.259,105.372Z" transform="translate(-281.945 -38.417)" fill="#e8505b"/>
      <g id="Group_3863" data-name="Group 3863" transform="translate(85.295 160.136)">
        <path id="Path_5207" data-name="Path 5207" d="M521.49,188.611a5.3,5.3,0,0,1-.8.126c-.528.087-1.325.112-2.348.319a38.391,38.391,0,0,0-8.744,2.521,40.086,40.086,0,0,0-12.021,7.891,38.42,38.42,0,0,0-5.747,6.95,26.869,26.869,0,0,0-4,9.218,11.526,11.526,0,0,0,.174,5.3,8.416,8.416,0,0,0,3.172,4.4,5.689,5.689,0,0,0,5.353.843,6.564,6.564,0,0,0,3.712-4.318,8.147,8.147,0,0,0-.426-6.016,13.114,13.114,0,0,0-4.19-4.871,26.689,26.689,0,0,0-12.773-4.753,39.272,39.272,0,0,0-14.464,1.288,53.062,53.062,0,0,0-14.09,5.881,39.817,39.817,0,0,0-11.661,10.616,14.087,14.087,0,0,0-2.784,7.333,6.661,6.661,0,0,0,.985,3.706,9.076,9.076,0,0,0,2.818,2.758l-.091-.046a5.374,5.374,0,0,0,3.94.164,5.77,5.77,0,0,0,2.811-2.948,20.738,20.738,0,0,0,1.633-8.817,25.269,25.269,0,0,0-1.445-8.821,19.846,19.846,0,0,0-4.9-7.256,26.408,26.408,0,0,0-15.545-7,41.969,41.969,0,0,0-16.659,1.876c-5.237,1.613-10.483,3.751-13.847,7.753-1.594,1.981-2.786,4.439-2.472,6.9a9.46,9.46,0,0,0,3.372,6.291,6.152,6.152,0,0,0,3.165,1.379,5.142,5.142,0,0,0,3.256-.781c1.979-1.217,2.882-3.583,3.083-5.84a17.562,17.562,0,0,0-.745-6.736c-.35-1.066-.812-2.1-1.207-3.132-.213-.511-.385-1.039-.631-1.53l-.782-1.443a38.846,38.846,0,0,0-7.49-9.978,46.525,46.525,0,0,0-18.365-11,44.569,44.569,0,0,0-16.1-2.136,41.48,41.48,0,0,0-10.133,1.874l-2.536.911c-.575.2-.88.279-.88.279s.277-.141.839-.373l2.511-1.008a39.83,39.83,0,0,1,10.175-2.076,44.5,44.5,0,0,1,16.3,1.991,46.919,46.919,0,0,1,18.692,11.022,39.505,39.505,0,0,1,7.68,10.123l.8,1.47c.253.5.431,1.039.654,1.561.408,1.058.882,2.1,1.248,3.2a18.394,18.394,0,0,1,.8,7.057c-.2,2.381-1.163,5.055-3.457,6.486a6.027,6.027,0,0,1-3.8.923,7.035,7.035,0,0,1-3.629-1.559,10.327,10.327,0,0,1-3.722-6.892,8.184,8.184,0,0,1,.575-4.051,12.933,12.933,0,0,1,2.085-3.528c3.588-4.273,8.985-6.432,14.284-8.086a42.87,42.87,0,0,1,17.046-1.936,27.369,27.369,0,0,1,16.131,7.264,20.8,20.8,0,0,1,5.144,7.618,26.225,26.225,0,0,1,1.513,9.177,21.687,21.687,0,0,1-1.737,9.268,6.766,6.766,0,0,1-3.331,3.43,6.369,6.369,0,0,1-4.683-.157l-.048-.019-.043-.027a10.094,10.094,0,0,1-3.13-3.08,7.678,7.678,0,0,1-1.128-4.244,15.031,15.031,0,0,1,2.965-7.877A40.708,40.708,0,0,1,453.8,212.572a53.962,53.962,0,0,1,14.359-5.964,40.154,40.154,0,0,1,14.8-1.275,27.506,27.506,0,0,1,13.181,4.964,13.888,13.888,0,0,1,4.43,5.2,8.955,8.955,0,0,1,.439,6.6,7.331,7.331,0,0,1-4.2,4.8,6.448,6.448,0,0,1-6.049-.958,9.132,9.132,0,0,1-3.428-4.809,12.2,12.2,0,0,1-.161-5.627,27.406,27.406,0,0,1,4.155-9.425,38.677,38.677,0,0,1,5.89-7.006,39.995,39.995,0,0,1,12.245-7.846,36.493,36.493,0,0,1,8.858-2.366A27.148,27.148,0,0,1,521.49,188.611Z" transform="translate(-351.092 -184.206)" fill="#fafafa"/>
      </g>
      <g id="Group_3864" data-name="Group 3864" transform="translate(223.645 227.568)">
        <path id="Path_5208" data-name="Path 5208" d="M478.031,219.065a39.032,39.032,0,0,0-5,2.416,25.535,25.535,0,0,0-9.889,11.078,22.856,22.856,0,0,0-1.594,4.7,9.576,9.576,0,0,0-.012,5.2,4.01,4.01,0,0,0,1.406,2.134,2.645,2.645,0,0,0,2.439.269,5.532,5.532,0,0,0,2.944-4.61,10.614,10.614,0,0,0-5.879-10.446,13.453,13.453,0,0,0-13.143,1.238,18.827,18.827,0,0,0-7.44,11.427c-.5,2.169-.555,4.5.516,6.266,1.025,1.774,3.205,2.82,4.97,1.958a5.047,5.047,0,0,0,2.817-4.606A9.979,9.979,0,0,0,448.5,240.8a15.449,15.449,0,0,0-7.846-6.32,14.528,14.528,0,0,0-8.363-.5,15.965,15.965,0,0,0-5.815,2.7,20.048,20.048,0,0,0-3.861,3.954c-.014-.01.039-.122.159-.335a8.379,8.379,0,0,1,.582-.915,14.277,14.277,0,0,1,2.882-3.016,15.993,15.993,0,0,1,5.919-2.938,15.033,15.033,0,0,1,8.734.381,16.11,16.11,0,0,1,8.316,6.55,10.744,10.744,0,0,1,1.844,5.739,5.952,5.952,0,0,1-3.325,5.442,4.352,4.352,0,0,1-3.509.041,5.852,5.852,0,0,1-2.658-2.346c-1.283-2.116-1.174-4.7-.66-6.983a19.735,19.735,0,0,1,7.84-12.046,14.412,14.412,0,0,1,14.141-1.288,11.537,11.537,0,0,1,6.364,11.45,6.382,6.382,0,0,1-3.55,5.318,3.51,3.51,0,0,1-3.246-.387,4.83,4.83,0,0,1-1.712-2.6,10.346,10.346,0,0,1,.05-5.616,23.368,23.368,0,0,1,1.708-4.826,25.336,25.336,0,0,1,10.336-11.115A17.1,17.1,0,0,1,478.031,219.065Z" transform="translate(-422.612 -219.065)" fill="#fafafa"/>
      </g>
      <g id="Group_3865" data-name="Group 3865" transform="translate(124.726 242.284)">
        <path id="Path_5209" data-name="Path 5209" d="M464.783,239.779a1.9,1.9,0,0,1-.482-.085l-1.375-.342a42.884,42.884,0,0,0-5.364-.9A40.866,40.866,0,0,0,438,241.183a36.58,36.58,0,0,0-5.867,2.977,16.692,16.692,0,0,0-5.113,4.766,7.763,7.763,0,0,0-.977,7,6.227,6.227,0,0,0,2.165,3.012,4.564,4.564,0,0,0,3.583.774,6.8,6.8,0,0,0,4.97-5.7,12.484,12.484,0,0,0-2.24-8.167,24.649,24.649,0,0,0-14.738-10.463,24.159,24.159,0,0,0-17.862,2.683,21.966,21.966,0,0,0-6.581,5.707,11.208,11.208,0,0,0-1.71,3.784,5.4,5.4,0,0,0,.319,3.819,3.743,3.743,0,0,0,2.954,1.969,5.507,5.507,0,0,0,3.513-1.018c2.143-1.385,2.82-4.058,2.606-6.416a16.413,16.413,0,0,0-2.252-6.612,23.684,23.684,0,0,0-4.037-5.128,26.3,26.3,0,0,0-9.624-5.761,24.542,24.542,0,0,0-8.419-1.315,29,29,0,0,0-7.212,1.163,1.75,1.75,0,0,1,.445-.193c.36-.126.8-.282,1.344-.474a21.883,21.883,0,0,1,5.413-.888,24.421,24.421,0,0,1,8.6,1.172,26.655,26.655,0,0,1,9.939,5.778,24.276,24.276,0,0,1,4.221,5.258,17.144,17.144,0,0,1,2.41,6.931,9.331,9.331,0,0,1-.435,3.929,6.538,6.538,0,0,1-2.5,3.285,6.389,6.389,0,0,1-4.1,1.2,4.668,4.668,0,0,1-3.687-2.432,6.323,6.323,0,0,1-.426-4.47,12.146,12.146,0,0,1,1.84-4.12,22.793,22.793,0,0,1,6.877-6.014,25.092,25.092,0,0,1,18.6-2.809,25.567,25.567,0,0,1,15.332,10.916,13.4,13.4,0,0,1,2.36,8.827,7.721,7.721,0,0,1-5.739,6.476,5.474,5.474,0,0,1-4.3-.946,7.1,7.1,0,0,1-2.47-3.455,8.437,8.437,0,0,1-.373-4.084,9.7,9.7,0,0,1,1.484-3.664,17.41,17.41,0,0,1,5.4-4.968,36.993,36.993,0,0,1,6.02-2.983,40.305,40.305,0,0,1,19.87-2.462A27.925,27.925,0,0,1,464.783,239.779Z" transform="translate(-371.476 -226.673)" fill="#fafafa"/>
      </g>
      <path id="Path_5210" data-name="Path 5210" d="M308.945,155.913c4.014.211,2.869,22.079,5.838,17.452s-1.706-26.829,2.478-26.438c5.449.511,3.83,23.393,3.836,25.337.006,1.888,2.817,1.927,2.716.176-.143-2.519-.987-29.014,4.372-28.564,2.971.25,1.89,5.558,1.89,5.558s-1.039,24.9,1.5,25.024c2.577.132,3.677-14.479,3.7-19.424.025-4.884,2.356-6.919,4.511-5.169,1.47,1.194,1.755,16.328,1.615,21.219s-.753,18.307,4.925,11.8,12.44-9.428,14.785-8.962,2.464,3.923.037,5.043c-1.961.905-4.788,3.414-6.836,5.385a30.783,30.783,0,0,0-4.176,5.592,23.812,23.812,0,0,0-2.991,6.933l7.608,91.2,5.589-6.976,31.872,30.81-16.632,19.135c-12.185,14.021-34.226,14.924-46.608,1.077q-.676-.757-1.3-1.555a25.891,25.891,0,0,1-5.163-13.837l-10.529-118.24-.093,0c-.23-13.141-3.8-23.128-4.418-29.9C306.32,155.986,307.452,155.835,308.945,155.913Z" transform="translate(-306.999 -61.76)" fill="#ffbe9d"/>
      <g id="Group_3889" data-name="Group 3889" transform="translate(126.889)">
        <g id="Group_3888" data-name="Group 3888">
          <g id="Group_3887" data-name="Group 3887">
            <g id="Group_3881" data-name="Group 3881" transform="translate(0.255 13.43)">
              <g id="Group_3866" data-name="Group 3866">
                <path id="Path_5211" data-name="Path 5211" d="M394.846,237.827c.118-13.754-.012-28.233-.012-28.233s-17.683-3.145-21.085-26.3c-3.244-22.083,2.259-69.581,2.259-69.581h0c25.618-10.1,54.46-6.2,72.405,14.423h0l-2.789,111.678c-.323,12.964-11.728,23.012-25.608,22.559h0C406,261.912,394.736,250.929,394.846,237.827Z" transform="translate(-372.726 -108.366)" fill="#ffbe9d"/>
              </g>
              <g id="Group_3870" data-name="Group 3870" transform="translate(3.283 35.391)">
                <g id="Group_3867" data-name="Group 3867" transform="translate(4.809 3.777)">
                  <path id="Path_5212" data-name="Path 5212" d="M376.913,131.262a2.964,2.964,0,0,0,2.824,3.023,2.835,2.835,0,0,0,3.087-2.637,2.968,2.968,0,0,0-2.82-3.027A2.84,2.84,0,0,0,376.913,131.262Z" transform="translate(-376.909 -128.615)" fill="#263238"/>
                </g>
                <g id="Group_3869" data-name="Group 3869">
                  <g id="Group_3868" data-name="Group 3868">
                    <path id="Path_5213" data-name="Path 5213" d="M374.469,129.711c.362.391,2.627-1.244,5.817-1.2,3.188,0,5.509,1.667,5.859,1.281.172-.17-.193-.872-1.205-1.627a8.121,8.121,0,0,0-4.685-1.5,7.814,7.814,0,0,0-4.635,1.437C374.63,128.84,374.289,129.537,374.469,129.711Z" transform="translate(-374.423 -126.662)" fill="#263238"/>
                  </g>
                </g>
              </g>
              <g id="Group_3874" data-name="Group 3874" transform="translate(36.555 36.935)">
                <g id="Group_3871" data-name="Group 3871" transform="translate(4.187 3.176)">
                  <path id="Path_5214" data-name="Path 5214" d="M393.79,131.747a2.964,2.964,0,0,0,2.824,3.024,2.834,2.834,0,0,0,3.085-2.637,2.966,2.966,0,0,0-2.82-3.025A2.837,2.837,0,0,0,393.79,131.747Z" transform="translate(-393.787 -129.102)" fill="#263238"/>
                </g>
                <g id="Group_3873" data-name="Group 3873">
                  <g id="Group_3872" data-name="Group 3872">
                    <path id="Path_5215" data-name="Path 5215" d="M391.668,130.509c.362.391,2.631-1.244,5.817-1.2,3.188,0,5.509,1.667,5.861,1.281.17-.17-.191-.872-1.207-1.627a8.134,8.134,0,0,0-4.683-1.5,7.816,7.816,0,0,0-4.637,1.437C391.832,129.638,391.49,130.335,391.668,130.509Z" transform="translate(-391.623 -127.46)" fill="#263238"/>
                  </g>
                </g>
              </g>
              <g id="Group_3876" data-name="Group 3876" transform="translate(16.648 36.945)">
                <g id="Group_3875" data-name="Group 3875">
                  <path id="Path_5216" data-name="Path 5216" d="M389.433,154.027c.017-.182-1.963-.547-5.171-.994-.812-.095-1.582-.265-1.714-.822a4.159,4.159,0,0,1,.573-2.408q1.181-2.942,2.48-6.175c3.447-8.792,5.952-16.025,5.6-16.16s-3.437,6.881-6.885,15.673c-.832,2.168-1.625,4.234-2.381,6.213a4.718,4.718,0,0,0-.458,3.192,2.04,2.04,0,0,0,1.325,1.205,5.5,5.5,0,0,0,1.381.209C387.412,154.17,389.418,154.208,389.433,154.027Z" transform="translate(-381.332 -127.465)" fill="#263238"/>
                </g>
              </g>
              <g id="Group_3877" data-name="Group 3877" transform="translate(22.109 93.327)">
                <path id="Path_5217" data-name="Path 5217" d="M384.155,164.512a58.8,58.8,0,0,0,31.049-7.9s-7.693,15.793-30.8,13.361Z" transform="translate(-384.155 -156.612)" fill="#eb996e"/>
              </g>
              <g id="Group_3878" data-name="Group 3878" transform="translate(25.683 69.094)">
                <path id="Path_5218" data-name="Path 5218" d="M386.328,146.2a5.744,5.744,0,0,1,5.178-2.074,5.243,5.243,0,0,1,3.6,1.985,3.324,3.324,0,0,1,.209,3.8,3.862,3.862,0,0,1-4.194,1.01,12.059,12.059,0,0,1-4.049-2.482,3.539,3.539,0,0,1-.9-.954,1.067,1.067,0,0,1,.017-1.188" transform="translate(-386.002 -144.085)" fill="#eb996e"/>
              </g>
              <g id="Group_3880" data-name="Group 3880" transform="translate(23.846 65.821)">
                <g id="Group_3879" data-name="Group 3879">
                  <path id="Path_5219" data-name="Path 5219" d="M395.317,142.393c-.518-.037-.565,3.426-3.555,5.85s-6.674,2-6.707,2.482c-.05.217.814.683,2.372.743a8.624,8.624,0,0,0,5.594-1.876,7.5,7.5,0,0,0,2.76-4.908C395.932,143.237,395.555,142.376,395.317,142.393Z" transform="translate(-385.053 -142.393)" fill="#263238"/>
                </g>
              </g>
            </g>
            <g id="Group_3882" data-name="Group 3882">
              <path id="Path_5220" data-name="Path 5220" d="M438.5,118.124c-8.455,12.063-30.848,24.465-46.881,27.343,1.872-2.464,11.721-8.537,13.593-11-7.27,5.428-17.669,12.69-27.312,13.179a5.852,5.852,0,0,1-3.314-.516c-1.279-.778-1.54-2.292-1.687-3.631a96.4,96.4,0,0,1,.667-20.946,23.189,23.189,0,0,1,8.341-14.945c6.179-4.772,15.019-5.95,23.35-6.15,6.985-.168,14.187.244,20.574,2.766s11.848,7.5,12.781,13.495" transform="translate(-372.594 -101.424)" fill="#263238"/>
            </g>
            <g id="Group_3883" data-name="Group 3883" transform="translate(48.573 2.672)">
              <path id="Path_5221" data-name="Path 5221" d="M439.284,170.869a131.1,131.1,0,0,0,2.308-15.45c.683-11.93-2.762-55.953-43.888-52.411l9.9,12.632s-8.127,26.685,9.179,45.089c0,0,.981,10.769,13.028,23.2,0,0,6.976-.211,9.477-13.055" transform="translate(-397.704 -102.806)" fill="#263238"/>
            </g>
            <g id="Group_3884" data-name="Group 3884" transform="translate(66.018 58.331)">
              <path id="Path_5222" data-name="Path 5222" d="M407.863,131.839a13.789,13.789,0,0,1,7.436.563,9.628,9.628,0,0,1,5.389,5,10.053,10.053,0,0,1-.023,7.389,17.006,17.006,0,0,1-4.283,6.167,11.509,11.509,0,0,1-4.521,2.925,5.5,5.5,0,0,1-5.14-.857" transform="translate(-406.722 -131.578)" fill="#ffbe9d"/>
            </g>
            <g id="Group_3886" data-name="Group 3886" transform="translate(68.308 61.79)">
              <g id="Group_3885" data-name="Group 3885">
                <path id="Path_5223" data-name="Path 5223" d="M407.951,145.167c-.284.089.774,1.6,3.041,1.014a4.861,4.861,0,0,0,2.82-2.4,10.988,10.988,0,0,0,1.279-4.087,6.456,6.456,0,0,0-1-4.364,4.3,4.3,0,0,0-3.225-1.956c-2.323-.079-3.062,1.522-2.8,1.573.184.191,1.095-.629,2.612-.246,1.455.284,2.865,2.31,2.522,4.805-.306,2.54-1.312,4.855-2.671,5.42C409.117,145.624,408.108,144.966,407.951,145.167Z" transform="translate(-407.906 -133.367)" fill="#eb996e"/>
              </g>
            </g>
          </g>
        </g>
      </g>
      <g id="Group_3890" data-name="Group 3890" transform="translate(15.629 188.951)">
        <path id="Path_5224" data-name="Path 5224" d="M522.5,305.224V294.66H448.158L426.333,199.1l-111.255.913,26.98,105.208Z" transform="translate(-315.078 -199.102)" fill="#263238"/>
        <path id="Path_5225" data-name="Path 5225" d="M342.622,232.226c1.644,5.06,6.12,8.142,10,6.883s5.685-6.384,4.041-11.444-6.121-8.14-10-6.881S340.978,227.168,342.622,232.226Z" transform="translate(-289.908 -179.106)" fill="#fafafa"/>
      </g>
      <path id="Path_5226" data-name="Path 5226" d="M382.59,269.329a68.775,68.775,0,0,1-4.648-11.125,6.585,6.585,0,0,1-.435-2.824,2.392,2.392,0,0,1,1.708-2.093c1.733-.35,2.811,1.753,3.488,3.385a21.078,21.078,0,0,0,14.584,12.245l4.505-.126.019-.186,97.238-8.668-4.637-19.292,51.475-3.824,4.691,18.994a39.133,39.133,0,0,1-40.395,43.267l-111.58.029c-35.491,2.323-42.163-29.049-42.163-29.049Z" transform="translate(-260.8 25.094)" fill="#ffbe9d"/>
    </g>
  </g>
  <g id="Character_2" data-name="Character 2" transform="translate(190.186 455.274)">
    <g id="Group_3927" data-name="Group 3927" transform="translate(0 0)">
      <g id="Group_3924" data-name="Group 3924" transform="translate(82.023)">
        <g id="Group_3923" data-name="Group 3923">
          <path id="Path_5227" data-name="Path 5227" d="M324.356,414.786,280.4,441.91l16.12,38.787a141.207,141.207,0,0,0,34.514-49.8Z" transform="translate(-70.13 -162.201)" fill="#b78876"/>
          <g id="Group_3898" data-name="Group 3898" transform="translate(0 154.332)">
            <path id="Path_5228" data-name="Path 5228" d="M437.849,462.188c-5.683-13.6-25.177-58.5-41.493-75.282-24.43-25.124-67.432-21.741-67.432-21.741l-55.857,1.985s-21.24,2.331-41.145,12.73l-1.371.424.017.286c-15.634,8.49-37.773,28.852-58.865,48.614l25.238,23.422,27.935,24.8a.743.743,0,0,0-.048.5c.292,1.5-4.538,31.506-8.813,57.429a140.9,140.9,0,0,0,148.357,15.1l2.087-23.964c1.905-21.727,3.356-48.629,3.356-48.629l8.022,20.344,58.275-30.3Q437.04,465.065,437.849,462.188Z" transform="translate(-171.703 -363.042)" fill="#e8505b"/>
            <g id="Group_3892" data-name="Group 3892" transform="translate(99.58)">
              <path id="Path_5229" data-name="Path 5229" d="M282.371,363.994a3.889,3.889,0,0,1,.246,1,21.475,21.475,0,0,1,.369,2.925,29.208,29.208,0,0,1-1.443,10.728,30.488,30.488,0,0,1-8.833,13.369,30.644,30.644,0,0,1-37.006,1.741,30.536,30.536,0,0,1-10.059-12.473,29.21,29.21,0,0,1-2.457-10.543,21.671,21.671,0,0,1,.089-2.946,3.908,3.908,0,0,1,.151-1.016c.114.006-.043,1.414.151,3.938A30.736,30.736,0,0,0,226.3,380.99,30.353,30.353,0,0,0,236.241,393,30.028,30.028,0,0,0,272.1,391.31a30.328,30.328,0,0,0,8.765-12.893,30.715,30.715,0,0,0,1.724-10.487C282.547,365.4,282.257,364.011,282.371,363.994Z" transform="translate(-223.181 -363.994)" fill="#263238"/>
            </g>
            <g id="Group_3893" data-name="Group 3893" transform="translate(191.933 12.091)">
              <path id="Path_5230" data-name="Path 5230" d="M290.951,370.271a27.309,27.309,0,0,0-3.954.936,19.128,19.128,0,0,0-8.655,6.564c-2.9,3.662-4.759,9.07-5.5,15.2-.389,3.072-.553,6.331-.669,9.721-.139,3.387-.2,6.9-.238,10.492a358.79,358.79,0,0,0,1.656,36.779c.437,4.695.907,8.482,1.2,11.1.139,1.219.253,2.217.346,3.02a4.218,4.218,0,0,1,.052,1.064,4.382,4.382,0,0,1-.253-1.033c-.141-.8-.317-1.787-.534-3-.41-2.608-.987-6.387-1.518-11.082a305.982,305.982,0,0,1-1.954-36.862c.041-3.606.106-7.126.259-10.523.13-3.395.315-6.683.737-9.8.793-6.221,2.784-11.792,5.854-15.522a18.935,18.935,0,0,1,9.092-6.5A10.512,10.512,0,0,1,290.951,370.271Z" transform="translate(-270.923 -370.244)" fill="#263238"/>
            </g>
            <g id="Group_3894" data-name="Group 3894" transform="translate(53.424 8.488)">
              <path id="Path_5231" data-name="Path 5231" d="M224.912,368.382a4.67,4.67,0,0,1-.238,1.087l-.87,3.056c-.812,2.782-1.921,6.581-3.273,11.216-2.739,9.475-6.357,22.611-9.893,37.236s-6.306,27.972-8.192,37.652c-.913,4.741-1.66,8.628-2.205,11.473-.253,1.263-.458,2.294-.621,3.116a4.85,4.85,0,0,1-.284,1.076,4.51,4.51,0,0,1,.083-1.108c.114-.83.259-1.872.435-3.149.393-2.733,1.035-6.676,1.892-11.537,1.708-9.722,4.38-23.107,7.914-37.76s7.271-27.771,10.189-37.2c1.457-4.718,2.685-8.519,3.583-11.131.426-1.217.774-2.209,1.05-3A4.476,4.476,0,0,1,224.912,368.382Z" transform="translate(-199.321 -368.382)" fill="#263238"/>
            </g>
            <g id="Group_3895" data-name="Group 3895" transform="translate(202.475 89.805)">
              <path id="Path_5232" data-name="Path 5232" d="M338.946,410.423a15.247,15.247,0,0,1-2.279,1.7c-1.5,1.043-3.7,2.505-6.445,4.277-5.486,3.548-13.17,8.291-21.816,13.249s-16.632,9.187-22.464,12.127c-2.917,1.472-5.293,2.631-6.95,3.4a15.347,15.347,0,0,1-2.617,1.107,15.285,15.285,0,0,1,2.439-1.455l6.8-3.681c5.743-3.1,13.653-7.422,22.294-12.371s16.363-9.589,21.938-12.978c2.67-1.615,4.89-2.962,6.614-4A15.432,15.432,0,0,1,338.946,410.423Z" transform="translate(-276.373 -410.419)" fill="#263238"/>
            </g>
            <g id="Group_3896" data-name="Group 3896" transform="translate(7.639 58.849)">
              <path id="Path_5233" data-name="Path 5233" d="M224.077,433.871c-.176.215-11.158-8.442-24.528-19.335s-24.068-19.9-23.894-20.116,11.158,8.44,24.53,19.336S224.253,433.654,224.077,433.871Z" transform="translate(-175.652 -394.416)" fill="#263238"/>
            </g>
            <path id="Path_5234" data-name="Path 5234" d="M271.4,394.489l21.869,71.933-8.138,4.231-8.022-20.344S268.864,407.573,271.4,394.489Z" transform="translate(-78.996 -335.499)" opacity="0.2"/>
            <g id="Group_3897" data-name="Group 3897" transform="translate(78.664 3.734)" opacity="0.2">
              <path id="Path_5235" data-name="Path 5235" d="M215.087,370.723c-11.786,6.213,17.756,21.166,31.1,20.764l-9.69-25.563S219.043,368.638,215.087,370.723Z" transform="translate(-212.368 -365.924)"/>
            </g>
            <path id="Path_5236" data-name="Path 5236" d="M286.473,435.313l-69.993.259,4.6-25.763,70.563-1.372Z" transform="translate(-129.862 -322.466)" fill="#fff" opacity="0.2"/>
          </g>
          <g id="Group_3922" data-name="Group 3922" transform="translate(57.571)">
            <path id="Path_5237" data-name="Path 5237" d="M293.8,355.55a5.173,5.173,0,0,0,7.4,5.975c3.378-1.8,3.718-6.509,2.973-10.26s-2.1-7.745-.59-11.258c1.155-2.689,3.739-4.426,5.739-6.564a16.5,16.5,0,0,0,4.31-14.088,13.871,13.871,0,0,0-9.751-10.726c-5.037-1.3-11.183.356-14.984-3.2-2.755-2.577-3-6.881-5.157-9.978-3.343-4.809-10.223-5.447-16.009-4.542s-11.655,2.882-17.363,1.578c-4.768-1.089-8.728-4.327-13.214-6.273a25.631,25.631,0,0,0-32.682,35.829c1.83,3.341,4.546,6.354,8.1,7.713" transform="translate(-201.464 -284.212)" fill="#263238"/>
            <g id="Group_3921" data-name="Group 3921" transform="translate(13.888 26.575)">
              <g id="Group_3918" data-name="Group 3918">
                <g id="Group_3913" data-name="Group 3913">
                  <g id="Group_3912" data-name="Group 3912">
                    <g id="Group_3899" data-name="Group 3899">
                      <path id="Path_5238" data-name="Path 5238" d="M266.8,460.236h0A28.7,28.7,0,0,1,237.98,433.1c-.633-12.676-1.163-24.881-1.163-24.881s-23.534-1.706-25.7-24.712-2.468-76.214-2.468-76.214h0a81.646,81.646,0,0,1,81.977,3.559l2.24,1.437,2.718,119.066A28.7,28.7,0,0,1,266.8,460.236Z" transform="translate(-208.644 -297.95)" fill="#b78876"/>
                    </g>
                    <g id="Group_3903" data-name="Group 3903" transform="translate(38.148 42.287)">
                      <g id="Group_3900" data-name="Group 3900" transform="translate(4.18 2.276)">
                        <path id="Path_5239" data-name="Path 5239" d="M232.846,321.159a3.349,3.349,0,0,0-2.147,4.24,3.391,3.391,0,0,0,4.279,2.128,3.35,3.35,0,0,0,2.147-4.242A3.39,3.39,0,0,0,232.846,321.159Z" transform="translate(-230.526 -320.987)" fill="#263238"/>
                      </g>
                      <g id="Group_3902" data-name="Group 3902">
                        <g id="Group_3901" data-name="Group 3901">
                          <path id="Path_5240" data-name="Path 5240" d="M228.418,323.454c.389.377,2.569-1.5,5.772-1.706,3.2-.252,5.629,1.3,5.96.868.162-.191-.244-.89-1.306-1.6a7.973,7.973,0,0,0-9.365.669C228.532,322.537,228.23,323.288,228.418,323.454Z" transform="translate(-228.365 -319.81)" fill="#263238"/>
                        </g>
                      </g>
                    </g>
                    <g id="Group_3907" data-name="Group 3907" transform="translate(2.593 42.359)">
                      <g id="Group_3904" data-name="Group 3904" transform="translate(4.612 2.205)">
                        <path id="Path_5241" data-name="Path 5241" d="M214.689,321.159a3.349,3.349,0,0,0-2.147,4.24,3.392,3.392,0,0,0,4.279,2.128,3.353,3.353,0,0,0,2.149-4.242A3.393,3.393,0,0,0,214.689,321.159Z" transform="translate(-212.369 -320.987)" fill="#263238"/>
                      </g>
                      <g id="Group_3906" data-name="Group 3906">
                        <g id="Group_3905" data-name="Group 3905">
                          <path id="Path_5242" data-name="Path 5242" d="M210.038,323.491c.389.377,2.571-1.5,5.774-1.706,3.2-.253,5.629,1.3,5.958.867.164-.192-.244-.89-1.3-1.594a7.973,7.973,0,0,0-9.365.669C210.152,322.574,209.85,323.325,210.038,323.491Z" transform="translate(-209.985 -319.847)" fill="#263238"/>
                        </g>
                      </g>
                    </g>
                    <g id="Group_3909" data-name="Group 3909" transform="translate(18.306 43.151)">
                      <g id="Group_3908" data-name="Group 3908">
                        <path id="Path_5243" data-name="Path 5243" d="M226.622,347.985c0-.25-2.012-.487-5.265-.669-.845-.021-1.517-.157-1.613-.6a4.5,4.5,0,0,1,.4-2.424c.652-2.163,1.313-4.354,2-6.649,2.745-9.465,4.577-17.247,4.093-17.385s-3.1,7.42-5.85,16.886c-.642,2.308-1.257,4.511-1.865,6.687a5.277,5.277,0,0,0-.176,3.486,2.2,2.2,0,0,0,1.551,1.209,5.453,5.453,0,0,0,1.443.07C224.6,348.451,226.62,348.235,226.622,347.985Z" transform="translate(-218.107 -320.257)" fill="#263238"/>
                      </g>
                    </g>
                    <g id="Group_3910" data-name="Group 3910" transform="translate(22.178 73.545)">
                      <path id="Path_5244" data-name="Path 5244" d="M235.435,335.969a78.994,78.994,0,0,1-15.326,5.786s4.223,5.618,10.723,2.646C237.581,341.318,235.435,335.969,235.435,335.969Z" transform="translate(-220.109 -335.969)" fill="#fff"/>
                    </g>
                    <g id="Group_3911" data-name="Group 3911" transform="translate(28.109 98.963)">
                      <path id="Path_5245" data-name="Path 5245" d="M223.175,360.087s14.783,0,29.6-10.978c0,0-5.805,17.153-29.163,16.949Z" transform="translate(-223.175 -349.109)" fill="#a36957"/>
                    </g>
                  </g>
                </g>
                <g id="Group_3917" data-name="Group 3917" transform="translate(84.78 34.036)">
                  <g id="Group_3914" data-name="Group 3914">
                    <path id="Path_5246" data-name="Path 5246" d="M252.471,319.116a3.5,3.5,0,0,1,3.29-3.555c4.337-.2,11.471,1.366,12.369,13.228,1.284,16.942-15.261,13.03-15.326,12.549C252.752,340.958,252.554,325.709,252.471,319.116Z" transform="translate(-252.471 -315.545)" fill="#b78876"/>
                  </g>
                  <g id="Group_3916" data-name="Group 3916" transform="translate(3.961 5.4)">
                    <g id="Group_3915" data-name="Group 3915">
                      <path id="Path_5247" data-name="Path 5247" d="M254.531,331.987c.072-.058.313.186.834.377a3.018,3.018,0,0,0,2.23-.122c1.756-.791,3.062-3.747,2.913-6.807a9.718,9.718,0,0,0-1.153-4.163,3.445,3.445,0,0,0-2.412-2.1,1.523,1.523,0,0,0-1.7.94c-.193.491-.06.822-.147.857-.044.046-.389-.255-.3-.967a1.874,1.874,0,0,1,.592-1.11,2.265,2.265,0,0,1,1.615-.555,4.193,4.193,0,0,1,3.31,2.395,9.973,9.973,0,0,1,1.389,4.645c.149,3.422-1.371,6.749-3.789,7.641a3.225,3.225,0,0,1-2.758-.244C254.593,332.4,254.475,332.024,254.531,331.987Z" transform="translate(-254.518 -318.336)" fill="#a36957"/>
                    </g>
                  </g>
                </g>
              </g>
              <g id="Group_3919" data-name="Group 3919" transform="translate(36.565 32.532)">
                <path id="Path_5248" data-name="Path 5248" d="M240.6,318.722c-.723.932-3.248.5-6.529.356-3.273-.263-5.834-.137-6.43-1.151-.679-1.052,2.49-3.472,6.711-3.126C238.581,314.973,241.408,317.761,240.6,318.722Z" transform="translate(-227.546 -314.768)" fill="#263238"/>
              </g>
              <g id="Group_3920" data-name="Group 3920" transform="translate(2.781 33.554)">
                <path id="Path_5249" data-name="Path 5249" d="M219.94,317.639c-.24,1.174-2.364,1.733-4.763,1.96-2.4.193-4.59.012-5.033-1.1-.449-1.081,1.563-2.9,4.656-3.167S220.192,316.5,219.94,317.639Z" transform="translate(-210.082 -315.296)" fill="#263238"/>
              </g>
            </g>
            <path id="Path_5250" data-name="Path 5250" d="M207.4,316.65s13.961,6.759,32.131-2.312c11.922-5.95,25.819-8.858,28.883-6.459s3.71,14.68,15.522,18.267c0,0-.811,23.439,8.535,22.6s3.505-37.139,3.505-37.139l-22.863-11.165-24.95-4.712-23.507,3.314-18.189,4.981Z" transform="translate(-196.787 -273.446)" fill="#263238"/>
          </g>
        </g>
      </g>
      <g id="Group_3926" data-name="Group 3926" transform="translate(0 80.889)">
        <g id="Group_3925" data-name="Group 3925" transform="translate(16.517)">
          <path id="Path_5251" data-name="Path 5251" d="M188.017,327.292c.826,1.325,27.718,94.5,27.718,94.5l-53.355,7.273-24.54-76.031Z" transform="translate(-137.84 -324.846)" fill="#455a64"/>
          <path id="Path_5252" data-name="Path 5252" d="M191.775,422.976l4.793-2.551-27.919-94.4-5.167,2.741Z" transform="translate(-113.879 -326.027)" fill="#263238"/>
          <path id="Path_5253" data-name="Path 5253" d="M154.385,340.944a2.262,2.262,0,1,1-2.687-1.737A2.26,2.26,0,0,1,154.385,340.944Z" transform="translate(-126.561 -313.759)" fill="#263238"/>
        </g>
        <path id="Path_5254" data-name="Path 5254" d="M213.649,445.814l-35,22.8-6.44-81.578h0l.546-4.074,23.712-9.049-6.817-17.46a15.047,15.047,0,0,0-20.754-7.716L161.3,352.6a21.4,21.4,0,0,0-10.974,13.529c-2.695,10.107-5.093,21.029-4.842,20.081h0l-15,105.006s-7.134,30.276,13.58,44.677c15.651,10.883,42.008-.673,56-8.581l60.623-36.535Z" transform="translate(-129.301 -306.339)" fill="#b78876"/>
      </g>
    </g>
  </g>
  <g id="Character_1" data-name="Character 1" transform="translate(82.83)">
    <g id="Group_3967" data-name="Group 3967" transform="translate(0 0)">
      <g id="Group_3961" data-name="Group 3961" transform="translate(15.468)">
        <path id="Path_5255" data-name="Path 5255" d="M222.2,194.212l-23.747-36.125-40.027,25.147,36.288,55.959S214.678,217.532,222.2,194.212Z" transform="translate(-10.2 53.208)" fill="#eb996e"/>
        <g id="Group_3952" data-name="Group 3952" transform="translate(49.291)">
          <path id="Path_5256" data-name="Path 5256" d="M120.1,115.609c1.96-2.155-.7-5.527-3.434-6.521s-6.146-1.451-7.453-4.053c-1.588-3.159,1.217-6.689,1.722-10.187.54-3.741-1.617-7.3-2.257-11.024a13.906,13.906,0,0,1,18.271-15.491A18.105,18.105,0,0,1,159.056,57.6c3.606-2.741,7.268-5.515,11.469-7.21s9.078-2.209,13.222-.377,7.219,6.389,6.418,10.846c3.136-3.726,8.97-4.457,13.373-2.372s7.389,6.5,8.672,11.195c1.791,6.563.23,14.305-5,18.65s-14.2,3.94-18.075-1.65" transform="translate(-106.155 -48.858)" fill="#263238"/>
          <g id="Group_3951" data-name="Group 3951" transform="translate(0 22.077)">
            <g id="Group_3950" data-name="Group 3950" transform="translate(0 4.014)">
              <g id="Group_3947" data-name="Group 3947">
                <g id="Group_3942" data-name="Group 3942" transform="translate(12.7)">
                  <g id="Group_3941" data-name="Group 3941">
                    <g id="Group_3928" data-name="Group 3928">
                      <path id="Path_5257" data-name="Path 5257" d="M140.775,214.183h0a26.848,26.848,0,0,0,26.962-25.389c.592-11.86,1.087-23.279,1.087-23.279s22.02-1.6,24.051-23.122,2.31-71.307,2.31-71.307h0a76.394,76.394,0,0,0-76.7,3.333l-2.093,1.344-2.544,111.4A26.851,26.851,0,0,0,140.775,214.183Z" transform="translate(-113.846 -62.346)" fill="#ffbe9d"/>
                    </g>
                    <g id="Group_3932" data-name="Group 3932" transform="translate(34.588 39.565)">
                      <g id="Group_3929" data-name="Group 3929" transform="translate(0.811 2.128)">
                        <path id="Path_5258" data-name="Path 5258" d="M136.311,84.06a3.137,3.137,0,0,1,2.01,3.969,3.176,3.176,0,0,1-4,1.991,3.136,3.136,0,0,1-2.01-3.969A3.174,3.174,0,0,1,136.311,84.06Z" transform="translate(-132.145 -83.899)" fill="#263238"/>
                      </g>
                      <g id="Group_3931" data-name="Group 3931">
                        <g id="Group_3930" data-name="Group 3930">
                          <path id="Path_5259" data-name="Path 5259" d="M142.735,86.208c-.364.354-2.4-1.4-5.4-1.6-2.995-.236-5.266,1.213-5.575.812-.153-.18.228-.834,1.221-1.493a7.464,7.464,0,0,1,8.761.625C142.628,85.351,142.911,86.051,142.735,86.208Z" transform="translate(-131.726 -82.799)" fill="#263238"/>
                        </g>
                      </g>
                    </g>
                    <g id="Group_3936" data-name="Group 3936" transform="translate(67.852 39.631)">
                      <g id="Group_3933" data-name="Group 3933" transform="translate(0.408 2.062)">
                        <path id="Path_5260" data-name="Path 5260" d="M153.3,84.06a3.134,3.134,0,0,1,2.01,3.969,3.173,3.173,0,0,1-4,1.991,3.134,3.134,0,0,1-2.01-3.969A3.172,3.172,0,0,1,153.3,84.06Z" transform="translate(-149.133 -83.899)" fill="#263238"/>
                      </g>
                      <g id="Group_3935" data-name="Group 3935">
                        <g id="Group_3934" data-name="Group 3934">
                          <path id="Path_5261" data-name="Path 5261" d="M159.933,86.241c-.366.354-2.4-1.4-5.4-1.6-2.995-.236-5.266,1.213-5.575.812-.153-.18.228-.834,1.221-1.493a7.461,7.461,0,0,1,8.761.627C159.824,85.384,160.107,86.087,159.933,86.241Z" transform="translate(-148.922 -82.833)" fill="#263238"/>
                        </g>
                      </g>
                    </g>
                    <g id="Group_3938" data-name="Group 3938" transform="translate(56.245 40.372)">
                      <g id="Group_3937" data-name="Group 3937">
                        <path id="Path_5262" data-name="Path 5262" d="M142.922,109.158c0-.234,1.88-.455,4.925-.627.791-.019,1.42-.147,1.511-.559a4.206,4.206,0,0,0-.379-2.267c-.611-2.025-1.228-4.074-1.874-6.221-2.569-8.856-4.283-16.137-3.83-16.267s2.9,6.943,5.472,15.8c.6,2.159,1.176,4.221,1.745,6.258a4.929,4.929,0,0,1,.164,3.261,2.056,2.056,0,0,1-1.451,1.13,5.058,5.058,0,0,1-1.35.066C144.808,109.594,142.924,109.393,142.922,109.158Z" transform="translate(-142.922 -83.216)" fill="#263238"/>
                      </g>
                    </g>
                    <g id="Group_3939" data-name="Group 3939" transform="translate(45.945 68.808)">
                      <path id="Path_5263" data-name="Path 5263" d="M137.9,97.916a73.827,73.827,0,0,0,14.34,5.414s-3.95,5.256-10.032,2.476C135.893,102.92,137.9,97.916,137.9,97.916Z" transform="translate(-137.597 -97.916)" fill="#fff"/>
                    </g>
                    <g id="Group_3940" data-name="Group 3940" transform="translate(27.349 92.589)">
                      <path id="Path_5264" data-name="Path 5264" d="M155.675,120.482s-13.831,0-27.691-10.272c0,0,5.432,16.048,27.285,15.858Z" transform="translate(-127.984 -110.21)" fill="#eb996e"/>
                    </g>
                  </g>
                </g>
                <g id="Group_3946" data-name="Group 3946" transform="translate(0 41.693)">
                  <g id="Group_3943" data-name="Group 3943">
                    <path id="Path_5265" data-name="Path 5265" d="M122,87.24a3.271,3.271,0,0,0-3.078-3.325c-4.058-.191-10.734,1.279-11.574,12.375-1.2,15.853,14.278,12.193,14.34,11.74C121.735,107.675,121.921,93.409,122,87.24Z" transform="translate(-107.281 -83.899)" fill="#ffbe9d"/>
                  </g>
                  <g id="Group_3945" data-name="Group 3945" transform="translate(4.282 5.051)">
                    <g id="Group_3944" data-name="Group 3944">
                      <path id="Path_5266" data-name="Path 5266" d="M116.212,99.283c-.066-.056-.294.174-.78.352a2.82,2.82,0,0,1-2.087-.112c-1.642-.741-2.865-3.507-2.726-6.37a9.078,9.078,0,0,1,1.079-3.9,3.225,3.225,0,0,1,2.257-1.963,1.426,1.426,0,0,1,1.586.88c.18.46.056.768.137.8.043.043.364-.24.284-.905a1.764,1.764,0,0,0-.553-1.039,2.132,2.132,0,0,0-1.511-.52,3.929,3.929,0,0,0-3.1,2.24,9.354,9.354,0,0,0-1.3,4.347c-.139,3.2,1.284,6.314,3.546,7.15a3.014,3.014,0,0,0,2.581-.228C116.154,99.666,116.266,99.315,116.212,99.283Z" transform="translate(-109.494 -86.51)" fill="#eb996e"/>
                    </g>
                  </g>
                </g>
              </g>
              <g id="Group_3948" data-name="Group 3948" transform="translate(47.487 30.436)">
                <path id="Path_5267" data-name="Path 5267" d="M131.959,81.783c.677.87,3.041.462,6.109.333,3.062-.246,5.459-.13,6.016-1.077.634-.985-2.329-3.25-6.279-2.927C133.847,78.274,131.2,80.881,131.959,81.783Z" transform="translate(-131.829 -78.08)" fill="#263238"/>
              </g>
              <g id="Group_3949" data-name="Group 3949" transform="translate(82.194 31.393)">
                <path id="Path_5268" data-name="Path 5268" d="M149.789,80.767c.226,1.1,2.213,1.621,4.457,1.834,2.246.18,4.294.01,4.708-1.033.42-1.01-1.462-2.712-4.356-2.962S149.553,79.7,149.789,80.767Z" transform="translate(-149.771 -78.575)" fill="#263238"/>
              </g>
            </g>
            <path id="Path_5269" data-name="Path 5269" d="M198.321,79.842s-13.063,6.324-30.061-2.161c-11.156-5.569-24.157-8.289-27.024-6.045s-3.472,13.736-14.522,17.093c0,0,.758,21.929-7.985,21.147s-3.279-34.748-3.279-34.748l21.391-10.446,23.341-4.41,21.994,3.1,17.019,4.66Z" transform="translate(-101.223 -60.271)" fill="#263238"/>
          </g>
        </g>
        <g id="Group_3960" data-name="Group 3960" transform="translate(0 131.291)">
          <g id="Group_3956" data-name="Group 3956" transform="translate(0 16.233)">
            <path id="Path_5270" data-name="Path 5270" d="M81.8,146.145c22.857-23.507,63.091-20.942,63.091-20.942l52.258,1.857s19.874,2.182,38.5,11.91l1.283.4-.015.265c14.628,7.945,35.342,26.995,55.075,45.484l-23.614,21.915-26.136,23.2a.686.686,0,0,1,.044.464c-.273,1.406,4.246,29.477,8.246,53.731a131.829,131.829,0,0,1-138.8,14.125l-1.954-22.42c-1.782-20.329-3.14-45.5-3.14-45.5" transform="translate(-81.8 -125.12)" fill="#e8505b"/>
            <g id="Group_3953" data-name="Group 3953" transform="translate(136.251 6.038)">
              <path id="Path_5271" data-name="Path 5271" d="M152.243,128.242a3.958,3.958,0,0,1,.41.958c.265.749.592,1.677.988,2.807.843,2.441,2,6,3.362,10.409,2.735,8.823,6.229,21.1,9.542,34.806s5.8,26.231,7.4,35.33c.8,4.55,1.4,8.239,1.76,10.8.161,1.186.292,2.161.4,2.946a4.087,4.087,0,0,1,.072,1.039,4.009,4.009,0,0,1-.273-1c-.157-.78-.35-1.743-.586-2.915-.518-2.679-1.219-6.308-2.074-10.732-1.77-9.055-4.372-21.536-7.674-35.224s-6.689-25.974-9.247-34.839c-1.257-4.325-2.29-7.875-3.053-10.494-.325-1.153-.592-2.1-.809-2.863A4.079,4.079,0,0,1,152.243,128.242Z" transform="translate(-152.235 -128.242)" fill="#263238"/>
            </g>
            <g id="Group_3954" data-name="Group 3954" transform="translate(157.731 53.155)">
              <path id="Path_5272" data-name="Path 5272" d="M163.341,189.514c-.176-.215,9.825-8.655,22.333-18.845s22.8-18.28,22.971-18.066-9.823,8.653-22.335,18.847S163.517,189.73,163.341,189.514Z" transform="translate(-163.339 -152.599)" fill="#263238"/>
            </g>
            <path id="Path_5273" data-name="Path 5273" d="M107.281,152.668l-20.46,67.3,7.614,3.96,7.506-19.035S109.655,164.909,107.281,152.668Z" transform="translate(-77.108 -99.379)" opacity="0.2"/>
            <g id="Group_3955" data-name="Group 3955" transform="translate(104.948 1.589)" opacity="0.2">
              <path id="Path_5274" data-name="Path 5274" d="M165.149,130.432c11.026,5.815-16.611,19.8-29.1,19.427l9.065-23.917S161.448,128.482,165.149,130.432Z" transform="translate(-136.053 -125.942)"/>
            </g>
          </g>
          <path id="Path_5275" data-name="Path 5275" d="M112.714,134.551V116.729s34.81,8.956,36.073,29.784c0,0,4.428-23.022,22.362-24.126l2.532,32.384L152.813,172.93H131.658L114.9,158.476l-2.19-22.488" transform="translate(-52.913 -116.729)" fill="#e8505b"/>
          <g id="Group_3957" data-name="Group 3957" transform="translate(95.657 32.933)">
            <path id="Path_5276" data-name="Path 5276" d="M139.3,230.5a3.64,3.64,0,0,1-.056-.992c.01-.764.021-1.7.035-2.838.064-2.462.12-6.026.141-10.428.048-8.8-.215-20.965-1.319-34.348-1.12-13.386-2.867-25.428-4.368-34.1-.747-4.337-1.391-7.842-1.859-10.26-.2-1.118-.368-2.041-.5-2.793a3.858,3.858,0,0,1-.108-.988,3.618,3.618,0,0,1,.308.946c.186.741.412,1.65.689,2.755.588,2.395,1.339,5.885,2.176,10.214a326.222,326.222,0,0,1,4.672,34.146,326.464,326.464,0,0,1,1.027,34.442c-.112,4.409-.277,7.974-.462,10.434-.089,1.134-.162,2.068-.224,2.83A3.825,3.825,0,0,1,139.3,230.5Z" transform="translate(-131.25 -133.754)" fill="#263238"/>
          </g>
          <g id="Group_3958" data-name="Group 3958" transform="translate(58.591 14.454)">
            <path id="Path_5277" data-name="Path 5277" d="M147.77,133.537a3.909,3.909,0,0,0-2.076.159,4.445,4.445,0,0,0-1.919,1.5,15.063,15.063,0,0,0-1.623,2.96,99.275,99.275,0,0,0-6.66,19.263l-.155.66-.582-.352c-2.078-1.255-4.211-2.615-6.355-4.07a127.7,127.7,0,0,1-11.282-8.562,14.15,14.15,0,0,1-3.828-4.995,15.833,15.833,0,0,1-1.178-5.345,31.582,31.582,0,0,1,.739-7.784,13.852,13.852,0,0,1,.723-2.764,17.976,17.976,0,0,1-.337,2.832,36.226,36.226,0,0,0-.416,7.67,15.4,15.4,0,0,0,1.232,5.051,13.429,13.429,0,0,0,3.677,4.639c3.292,2.758,7.115,5.621,11.233,8.424,2.13,1.445,4.244,2.8,6.3,4.062l-.735.308a88.86,88.86,0,0,1,7.045-19.315,14.6,14.6,0,0,1,1.811-3,4.641,4.641,0,0,1,2.194-1.5A2.388,2.388,0,0,1,147.77,133.537Z" transform="translate(-112.088 -124.201)" fill="#263238"/>
          </g>
          <g id="Group_3959" data-name="Group 3959" transform="translate(98.541 5.658)">
            <path id="Path_5278" data-name="Path 5278" d="M152.436,119.654a15.292,15.292,0,0,1,.286,2.784c.137,1.983.313,4.532.524,7.591.251,3.2.633,7,1.281,11.183.253,2.066.971,4.308.414,6.8a11.665,11.665,0,0,1-4.542,5.79c-2.778,2.066-5.7,3.621-7.672,5.834l-.77.863-.075-1.151a41.538,41.538,0,0,0-5.186-17.381c-2.232-3.969-4.076-6-3.948-6.1a7.823,7.823,0,0,1,1.346,1.4,35.155,35.155,0,0,1,3.13,4.393,39.916,39.916,0,0,1,5.623,17.623l-.845-.288c2.114-2.4,5.118-4,7.79-5.995a10.872,10.872,0,0,0,4.194-5.233c.5-2.085-.122-4.312-.377-6.42-.6-4.223-.911-8.057-1.074-11.274s-.2-5.821-.2-7.62A14.568,14.568,0,0,1,152.436,119.654Z" transform="translate(-132.741 -119.654)" fill="#263238"/>
          </g>
        </g>
      </g>
      <g id="Group_3966" data-name="Group 3966" transform="translate(0 141.422)">
        <g id="Group_3963" data-name="Group 3963" transform="translate(12.465)">
          <path id="Path_5279" data-name="Path 5279" d="M226.278,121.966c-1.414,1.667-52.661,70.191-52.661,70.191l7.215,4.087,52.585-67.651Z" transform="translate(6.998 -121.966)" fill="#263238"/>
          <path id="Path_5280" data-name="Path 5280" d="M107.661,160.531s53.909,77.6,57.156,79.128c6.4,3,80.153-60.731,87.186-66.829.967-1.294,2.969-4.027,6.9-9.463,0,0,5.819-26.627,12.03-24.583s-3.4,13.531.64,23.648,22.565-14.013,23.308-16.18l4.776-6.24s5.008,14.2,4.67,20.13c-1.087,19-19.06,41.59-19.06,41.59S204.548,301.719,149.259,304.82c-15.924.894-44.221-44.289-63.142-78.172A46.365,46.365,0,0,1,99.329,166.6Z" transform="translate(-80.248 -106.355)" fill="#ffbe9d"/>
          <g id="Group_3962" data-name="Group 3962" transform="translate(214.993 43.121)">
            <path id="Path_5281" data-name="Path 5281" d="M191.4,158.3c-.149-.093,1.6-3.132,3.511-7s3.273-7.1,3.437-7.039a32.942,32.942,0,0,1-2.9,7.306A32.861,32.861,0,0,1,191.4,158.3Z" transform="translate(-191.388 -144.258)" fill="#eb996e"/>
          </g>
        </g>
        <g id="Group_3965" data-name="Group 3965" transform="translate(0 16.305)">
          <path id="Path_5282" data-name="Path 5282" d="M104.555,130.4S46.691,150.966,89.713,248.273l66.8-40.315-9.5-22.755Z" transform="translate(-73.804 -130.395)" fill="#e8505b"/>
          <g id="Group_3964" data-name="Group 3964" transform="translate(15.908 1.625)">
            <path id="Path_5283" data-name="Path 5283" d="M92.437,131.293a1.561,1.561,0,0,1,.458-.041l1.348-.017a23.9,23.9,0,0,1,5.149.683,28.3,28.3,0,0,1,7.567,3.213,41.035,41.035,0,0,1,8.409,6.918c5.6,5.852,10.831,14.017,15.684,23.476,4.89,9.459,9.454,20.232,14.137,31.554,1.4,3.391,2.788,6.736,4.1,9.9l.172.416-.395.217c-19.327,10.539-36.152,20.416-48.038,27.815-5.946,3.693-10.682,6.732-13.93,8.846l-3.739,2.422a9.8,9.8,0,0,1-1.331.793,9.255,9.255,0,0,1,1.226-.948c.826-.592,2.039-1.476,3.641-2.569,3.188-2.211,7.869-5.339,13.777-9.111,11.8-7.558,28.585-17.551,47.914-28.126l-.221.631c-1.313-3.165-2.7-6.509-4.1-9.9-4.683-11.318-9.212-22.078-14.032-31.516-4.786-9.44-9.914-17.574-15.377-23.41a41.317,41.317,0,0,0-8.185-6.927,28.831,28.831,0,0,0-7.374-3.314A38.334,38.334,0,0,0,92.437,131.293Z" transform="translate(-82.028 -131.235)" fill="#263238"/>
          </g>
        </g>
      </g>
    </g>
  </g>
  <g id="Icon" transform="translate(344.428 304.418)">
    <g id="Group_3980" data-name="Group 3980" transform="translate(0 0)">
      <g id="Group_3973" data-name="Group 3973" transform="translate(0 8.672)">
        <g id="Group_3972" data-name="Group 3972">
          <g id="Group_3971" data-name="Group 3971">
            <path id="Path_5284" data-name="Path 5284" d="M266.94,274.316a12.121,12.121,0,1,1-12.065-12.177A12.121,12.121,0,0,1,266.94,274.316Z" transform="translate(-177.584 -162.653)" fill="#263238"/>
            <g id="Group_3968" data-name="Group 3968" transform="translate(41.485 71.794)">
              <path id="Path_5285" data-name="Path 5285" d="M242.007,272.113a33.587,33.587,0,0,1,48.6-.642c6.188,6.237,15.876-3.356,9.686-9.6a47.375,47.375,0,0,0-67.883.551c-6.049,6.353,3.53,16.058,9.6,9.688Z" transform="translate(-230.483 -247.824)" fill="#263238"/>
            </g>
            <g id="Group_3969" data-name="Group 3969">
              <path id="Path_5286" data-name="Path 5286" d="M220.874,250.37c18.433-15.936,40.437-25.964,65.076-26.026,24.422-.06,48.506,8.61,66.391,25.407,6.391,6,16.1-3.573,9.686-9.595-20.489-19.244-47.968-29.515-76.013-29.446-28.355.07-53.553,11.661-74.735,29.974-6.651,5.749,2.981,15.4,9.595,9.686Z" transform="translate(-209.037 -210.71)" fill="#263238"/>
            </g>
            <g id="Group_3970" data-name="Group 3970" transform="translate(16.612 35.131)">
              <path id="Path_5287" data-name="Path 5287" d="M229.1,264.668c12.357-13.359,29.674-21.725,47.976-22.143A68.009,68.009,0,0,1,327.1,263.269c6.13,6.3,15.814-3.3,9.686-9.6-15.468-15.891-37.385-25.291-59.646-24.782A81.769,81.769,0,0,0,219.5,254.982c-5.95,6.432,3.621,16.143,9.6,9.686Z" transform="translate(-217.625 -228.871)" fill="#263238"/>
            </g>
          </g>
        </g>
      </g>
      <g id="Group_3979" data-name="Group 3979" transform="translate(0.247)">
        <g id="Group_3978" data-name="Group 3978">
          <g id="Group_3977" data-name="Group 3977">
            <path id="Path_5288" data-name="Path 5288" d="M267.069,269.833A12.122,12.122,0,1,1,255,257.656,12.122,12.122,0,0,1,267.069,269.833Z" transform="translate(-177.712 -158.17)" fill="#455a64"/>
            <g id="Group_3974" data-name="Group 3974" transform="translate(41.485 71.794)">
              <path id="Path_5289" data-name="Path 5289" d="M242.135,267.628a33.587,33.587,0,0,1,48.6-.64c6.188,6.237,15.878-3.358,9.686-9.6a47.373,47.373,0,0,0-67.881.551c-6.049,6.353,3.53,16.056,9.6,9.686Z" transform="translate(-230.611 -243.341)" fill="#455a64"/>
            </g>
            <g id="Group_3975" data-name="Group 3975">
              <path id="Path_5290" data-name="Path 5290" d="M221,245.887c18.431-15.936,40.437-25.964,65.076-26.026,24.422-.06,48.5,8.61,66.391,25.407,6.389,6,16.1-3.573,9.686-9.6-20.489-19.242-47.968-29.513-76.013-29.444-28.355.07-53.553,11.661-74.736,29.974-6.649,5.749,2.983,15.4,9.6,9.686Z" transform="translate(-209.165 -206.227)" fill="#455a64"/>
            </g>
            <g id="Group_3976" data-name="Group 3976" transform="translate(16.613 35.131)">
              <path id="Path_5291" data-name="Path 5291" d="M229.225,260.185c12.357-13.359,29.674-21.726,47.978-22.143a68,68,0,0,1,50.022,20.743c6.13,6.3,15.814-3.3,9.686-9.595-15.468-15.891-37.383-25.291-59.644-24.782A81.761,81.761,0,0,0,219.63,250.5c-5.95,6.43,3.621,16.143,9.595,9.686Z" transform="translate(-217.753 -224.388)" fill="#455a64"/>
            </g>
          </g>
        </g>
      </g>
    </g>
  </g>
</svg>
