<svg id="graphic-designer" xmlns="http://www.w3.org/2000/svg" width="199.409" height="202.847" viewBox="0 0 199.409 202.847">
    <defs>
        <style>
            .cls-1{fill:#b45b02}.cls-2{fill:#fec9a3}.cls-3{fill:#fec093}.cls-4{fill:#b45782}.cls-5{fill:#feb784}.cls-12{fill:#b0b0ae}
        </style>
    </defs>
    <path id="Path_5368" data-name="Path 5368" class="cls-1" d="M293.752 175.009h51.571a81.882 81.882 0 0 0 13.752-45.421V120H280v9.588a81.882 81.882 0 0 0 13.753 45.421z" transform="translate(-169.981 -78.743)"/>
    <path id="Path_5369" data-name="Path 5369" class="cls-2" d="M321.983 253.063a17.179 17.179 0 0 0-15.4-9.558H289.39a3.438 3.438 0 0 1-3.438-3.438V216h-27.5v24.067a3.438 3.438 0 0 1-3.438 3.438h-20.345a17.186 17.186 0 0 0-16.843 13.759L200 336.333h23.946l10.92-36.714a25.989 25.989 0 0 0 6.094 16.081l.249 20.628h68.809a13.752 13.752 0 0 0 13.752-13.752V260.7a17.039 17.039 0 0 0-1.787-7.637z" transform="translate(-124.362 -133.486)"/>
    <path id="Path_5370" data-name="Path 5370" class="cls-3" d="M397.9 309.873v61.885a13.752 13.752 0 0 1-13.75 13.752H330a156.088 156.088 0 0 0 66.114-83.27 17.04 17.04 0 0 1 1.786 7.633z" transform="translate(-198.493 -182.664)"/>
    <path id="Path_5371" data-name="Path 5371" class="cls-4" d="M349.356 352.2v20.628h-61.885l-.3-20.628a26.681 26.681 0 0 1 .3-34.381V280h10.314l3.1 10.843a18.231 18.231 0 0 0 35.06 0l3.1-10.843h10.314v37.819c.284.335.559.679.821 1.027a26.676 26.676 0 0 1-.824 33.354z" transform="translate(-170.576 -169.981)"/>
    <path id="Path_5372" data-name="Path 5372" class="cls-5" d="M363.5 229.964V216H336v13.865a29.543 29.543 0 0 0 11.693 3.258 30.885 30.885 0 0 0 15.812-3.16z" transform="translate(-201.915 -133.486)"/>
    <path id="Path_5373" data-name="Path 5373" class="cls-4" d="M370.174 403.744v20.628H317.55c17.581-11.041 38.141-28.252 53.445-53.982a26.676 26.676 0 0 1-.821 33.354z" transform="translate(-191.394 -221.525)"/>
    <path id="Path_5374" data-name="Path 5374" d="M354.456 379.254a7.314 7.314 0 0 0-9.848 2.192L320 419.354l2.278 9.474 9.848-2.192 24.609-37.91a6.725 6.725 0 0 0-2.278-9.473z" transform="translate(-192.791 -225.982)" style="fill:#3d4d63"/>
    <path id="Path_5375" data-name="Path 5375" class="cls-2" d="M374.943 438.876 361.19 432 344 435.438V459.5h48.133a13.752 13.752 0 0 0 13.752-13.752v-10.31z" transform="translate(-206.477 -256.658)"/>
    <path id="Path_5376" data-name="Path 5376" class="cls-2" d="M357.885 62.943v27.5a30.943 30.943 0 0 1-29.119 30.891 31.7 31.7 0 0 1-3.883-.017C308.437 120.26 296 105.867 296 89.386V62.943a30.943 30.943 0 1 1 61.885 0z" transform="translate(-179.105 -28.562)"/>
    <path id="Path_5377" data-name="Path 5377" class="cls-3" d="M401.363 64.437v27.5a30.943 30.943 0 0 1-29.119 30.891A30.938 30.938 0 0 0 388.9 95.379V57.561a30.846 30.846 0 0 0-9.064-21.879 29.406 29.406 0 0 0-1.117-1.062 30.957 30.957 0 0 1 22.644 29.817z" transform="translate(-222.583 -30.056)"/>
    <path id="Path_5378" data-name="Path 5378" d="M354.314 186.314A10.326 10.326 0 0 1 344 176h6.876a3.438 3.438 0 0 0 6.876 0h6.876a10.326 10.326 0 0 1-10.314 10.314z" transform="translate(-206.477 -110.677)" style="fill:#f7a468"/>
    <path id="Path_5379" data-name="Path 5379" d="M354.514 65.257v13.752H344.2V65.257a37.088 37.088 0 0 1-11.44-8.879 35.791 35.791 0 0 1-2.312-2.961 37.036 37.036 0 0 1-4.861-9.622l-2.016-6.042-6.885 22.029A52.263 52.263 0 0 1 272 96.2V65.257a41.257 41.257 0 0 1 82.514 0z" transform="translate(-165.42 -24)" style="fill:#f9d300"/>
    <path id="Path_5380" data-name="Path 5380" d="M397.157 138.314a5.157 5.157 0 1 1 5.157-5.157 5.157 5.157 0 0 1-5.157 5.157z" transform="translate(-233.848 -83.305)" style="fill:#7a432a"/>
    <path id="Path_5381" data-name="Path 5381" class="cls-1" d="M423.1 67.025v13.752h-10.312V67.025a37.088 37.088 0 0 1-11.44-8.879 35.792 35.792 0 0 1-2.312-2.961V46.4a30.8 30.8 0 0 0-6.756-19.3 41.288 41.288 0 0 1 30.82 39.925z" transform="translate(-234.008 -25.768)"/>
    <path id="Path_5382" data-name="Path 5382" class="cls-5" d="M440 120h3.438a10.314 10.314 0 0 1 0 20.628H440z" transform="translate(-261.22 -78.743)"/>
    <path id="Path_5383" data-name="Path 5383" d="M140.895 250.314V312.2a10.317 10.317 0 0 1-10.314 10.314H34.114A10.314 10.314 0 0 1 24 312.2v-61.886A10.317 10.317 0 0 1 34.314 240h96.266a10.317 10.317 0 0 1 10.314 10.314z" transform="translate(-24 -147.172)" style="fill:#e0e0de"/>
    <path id="Path_5384" data-name="Path 5384" d="M154.312 250.314V312.2A10.317 10.317 0 0 1 144 322.514H47.532c29.606-12.321 73.145-37.2 95.845-82.51H144a10.317 10.317 0 0 1 10.312 10.31z" transform="translate(-37.418 -147.172)" style="fill:#d6d6d4"/>
    <path id="Path_5385" data-name="Path 5385" class="cls-12" d="M128 464h41.257v13.752H128z" transform="translate(-83.305 -274.906)"/>
    <path id="Path_5386" data-name="Path 5386" d="M130.381 423.009H96L109.752 368h27.5z" transform="translate(-65.057 -220.163)" style="fill:#bfbfbd"/>
    <g id="Group_3999" data-name="Group 3999" transform="translate(10.314 103.142)">
        <path id="Path_5387" data-name="Path 5387" class="cls-12" d="M48 264h13.752v6.876H48z" transform="translate(-48 -264)"/>
        <path id="Path_5388" data-name="Path 5388" class="cls-12" d="M96 264h13.752v6.876H96z" transform="translate(-75.372 -264)"/>
        <path id="Path_5389" data-name="Path 5389" class="cls-12" d="M144 264h13.752v6.876H144z" transform="translate(-102.743 -264)"/>
        <path id="Path_5390" data-name="Path 5390" class="cls-12" d="M192 264h13.752v6.876H192z" transform="translate(-130.115 -264)"/>
        <path id="Path_5391" data-name="Path 5391" class="cls-12" d="M240 264h13.752v6.876H240z" transform="translate(-157.486 -264)"/>
    </g>
</svg>
