<svg xmlns="http://www.w3.org/2000/svg" width="198.086" height="198.257" viewBox="0 0 198.086 198.257">
    <defs>
        <style>
            .cls-1{fill:#fdb588}.cls-2{fill:#f2f2f2}.cls-3{fill:#fcc18b}.cls-4{fill:#eaab65}.cls-8{fill:#cdd6df}
        </style>
    </defs>
    <g id="web-development" transform="translate(.002)">
        <path id="Path_5349" data-name="Path 5349" class="cls-1" d="M345.712 38.414h-75.051a11.3 11.3 0 0 0-11.3 11.3V92.17a11.3 11.3 0 0 0 11.3 11.3h26.7l-4.315 17.416a2.472 2.472 0 0 0 3.9 2.555l26-19.969h22.769a11.3 11.3 0 0 0 11.3-11.3V49.718a11.3 11.3 0 0 0-11.3-11.3zm0 0" transform="translate(-158.931 -23.539)"/>
        <path id="Path_5350" data-name="Path 5350" class="cls-1" d="m349.564 210.377-3.338 13.471a2.472 2.472 0 0 0 3.9 2.555l26-19.969H354.7zm0 0" transform="translate(-212.114 -126.498)"/>
        <path id="Path_5351" data-name="Path 5351" class="cls-1" d="M448.458 38.414h-21.427a11.3 11.3 0 0 1 11.3 11.3V92.17a11.3 11.3 0 0 1-11.3 11.3h21.427a11.3 11.3 0 0 0 11.3-11.3V49.718a11.3 11.3 0 0 0-11.3-11.3zm0 0" transform="translate(-261.677 -23.539)"/>
        <g id="Group_3984" data-name="Group 3984" transform="translate(131.191 31.062)">
            <path id="Path_5352" data-name="Path 5352" class="cls-2" d="m339.95 112.166 9.386-6.1a1.111 1.111 0 0 1 .7-.185 2.793 2.793 0 0 1 2.512 2.7 1.69 1.69 0 0 1-.666 1.44l-6.5 4.213 6.5 4.211a1.693 1.693 0 0 1 .666 1.441 2.794 2.794 0 0 1-2.512 2.7 1.121 1.121 0 0 1-.7-.185l-9.386-6.1a2.442 2.442 0 0 1 0-4.138zm0 0" transform="translate(-338.805 -95.947)"/>
            <path id="Path_5353" data-name="Path 5353" class="cls-2" d="M401.205 82.176a1.6 1.6 0 0 1-.148.7l-13.005 26.64a1.853 1.853 0 0 1-1.662.924 2.044 2.044 0 0 1-2.069-1.959 1.668 1.668 0 0 1 .185-.7l12.969-26.64a1.627 1.627 0 0 1 1.552-.923 2.115 2.115 0 0 1 2.18 1.957zm0 0" transform="translate(-366.696 -80.219)"/>
            <path id="Path_5354" data-name="Path 5354" class="cls-2" d="m450.545 116.305-9.384 6.1a1.121 1.121 0 0 1-.7.185 2.793 2.793 0 0 1-2.514-2.7 1.693 1.693 0 0 1 .666-1.441l6.5-4.211-6.5-4.213a1.69 1.69 0 0 1-.666-1.44 2.793 2.793 0 0 1 2.514-2.7 1.111 1.111 0 0 1 .7.185l9.384 6.1a2.442 2.442 0 0 1 0 4.138zm0 0" transform="translate(-399.556 -95.948)"/>
        </g>
        <path id="Path_5355" data-name="Path 5355" class="cls-3" d="M157.634 292.357c-.563-9.591-6.652-17.408-15.714-21.653-11.093-5.193-41.3-13.052-41.3-13.052a6.16 6.16 0 0 1-5.035-6.058v-17.27H62.737v17.271a6.162 6.162 0 0 1-5.037 6.058s-30.209 7.859-41.3 13.047C7.334 274.949 1.244 282.766.682 292.357L0 333.528a8.22 8.22 0 0 0 8.219 8.318H150.1a8.22 8.22 0 0 0 8.219-8.318zm0 0" transform="translate(0 -143.589)"/>
        <path id="Path_5356" data-name="Path 5356" class="cls-4" d="M274.985 292.357c-.563-9.591-6.652-17.408-15.714-21.653-11.093-5.193-41.3-13.052-41.3-13.052a6.16 6.16 0 0 1-5.035-6.058v-17.27H191.5v27.627a6.161 6.161 0 0 0 5.035 6.058s30.211 7.859 41.3 13.052c9.062 4.244 15.151 12.061 15.714 21.653l.647 39.132h13.243a8.22 8.22 0 0 0 8.219-8.318zm0 0" transform="translate(-117.351 -143.589)"/>
        <path id="Path_5357" data-name="Path 5357" class="cls-4" d="M99.107 121.426h-4.313a6.66 6.66 0 0 0-6.563 8.021l1.694 9.322c1.313 6.911 9.192 3.753 9.192 3.753zm0 0" transform="translate(-53.997 -74.407)"/>
        <path id="Path_5358" data-name="Path 5358" class="cls-3" d="M292.342 121.426h4.311a6.66 6.66 0 0 1 6.563 8.021l-1.693 9.322c-1.314 6.911-9.192 3.753-9.192 3.753zm0 0" transform="translate(-179.136 -74.407)"/>
        <path id="Path_5359" data-name="Path 5359" class="cls-3" d="M173.06 14.361a33.956 33.956 0 0 0-47.8 0c-7.15 6.613-11.025 16.431-11.025 26.565l.011 35.332c0 16.7 21.712 34 34.913 34s34.913-17.3 34.913-34l.009-35.332c.004-10.133-3.87-19.952-11.021-26.565zm0 0" transform="translate(-70.004 -2.774)"/>
        <path id="Path_5360" data-name="Path 5360" class="cls-4" d="M211.373 14.361a35.268 35.268 0 0 0-23.9-9.833 34.264 34.264 0 0 0-10.714 1.82 37.147 37.147 0 0 1 13.184 8.014c7.151 6.613 11.025 16.433 11.025 26.565l-.009 35.332c0 12.639-12.43 25.617-24.2 31.185a25.964 25.964 0 0 0 10.714 2.818c13.2 0 34.913-17.3 34.913-34l.009-35.332c0-10.133-3.874-19.952-11.025-26.565zm0 0" transform="translate(-108.317 -2.774)"/>
        <path id="Path_5361" data-name="Path 5361" d="M159.989 0h-43.207a20.129 20.129 0 0 0-20.129 20.129V47.9s5.544-.126 9.106 3.4a1.178 1.178 0 0 0 2-.846V28.689a8.9 8.9 0 0 1 8.9-8.9h8.085a9.192 9.192 0 0 1 5.817 2.075l.793.647a11.11 11.11 0 0 0 14.065 0l.794-.647a9.192 9.192 0 0 1 5.817-2.075h8.085a8.9 8.9 0 0 1 8.9 8.9V50.46a1.179 1.179 0 0 0 2 .846c3.562-3.526 9.1-3.4 9.1-3.4V20.129A20.129 20.129 0 0 0 159.989 0zm0 0" transform="translate(-59.228)" style="fill:#426175"/>
        <path id="Path_5362" data-name="Path 5362" d="M248.392 0h-7.474c3.762 4.427 6.12 11.077 6.18 19.792h1.419a8.9 8.9 0 0 1 8.9 8.9V50.46a1.179 1.179 0 0 0 2 .846c3.562-3.524 9.1-3.4 9.1-3.4V20.129A20.129 20.129 0 0 0 248.392 0zm0 0" transform="translate(-147.631)" style="fill:#2c4456"/>
        <path id="Path_5363" data-name="Path 5363" d="M141.92 312.93c-6.456-3.022-19.384-6.947-29.066-9.7l-2.093.793a89.219 89.219 0 0 1-63.2 0l-2.095-.793c-9.682 2.753-22.608 6.678-29.064 9.7-9.069 4.243-15.158 12.06-15.721 21.651L0 375.752a8.22 8.22 0 0 0 8.219 8.318H150.1a8.22 8.22 0 0 0 8.219-8.318l-.682-41.171c-.563-9.591-6.652-17.408-15.714-21.651zm0 0" transform="translate(0 -185.813)" style="fill:#336dbc"/>
        <path id="Path_5364" data-name="Path 5364" class="cls-2" d="M156.717 373.75H54.476a5.928 5.928 0 0 1-5.913-5.506l-4.181-58.67a5.926 5.926 0 0 1 5.911-6.348H160.9a5.927 5.927 0 0 1 5.911 6.348l-4.181 58.672a5.928 5.928 0 0 1-5.913 5.5zm0 0" transform="translate(-27.188 -185.811)"/>
        <path id="Path_5365" data-name="Path 5365" class="cls-8" d="M311.155 303.229h-21.584a5.926 5.926 0 0 1 5.911 6.348l-4.574 64.174h16.065a5.928 5.928 0 0 0 5.913-5.506l4.181-58.67a5.925 5.925 0 0 0-5.911-6.347zm0 0" transform="translate(-177.444 -185.813)"/>
        <path id="Path_5366" data-name="Path 5366" class="cls-8" d="M162.654 495.675H47.248a5.158 5.158 0 1 1 0-10.316h115.406a5.158 5.158 0 1 1 0 10.316zm0 0" transform="translate(-25.793 -297.419)"/>
        <path id="Path_5367" data-name="Path 5367" d="M199.621 387.34a8.256 8.256 0 1 1-8.256-8.254 8.255 8.255 0 0 1 8.256 8.254zm0 0" transform="translate(-112.207 -232.296)" style="fill:#fff"/>
    </g>
</svg>
